<svg xmlns="http://www.w3.org/2000/svg" viewBox="0 0 461 513"><defs><style>.cls-1{fill:#f7931e;stroke:#f7931e;stroke-miterlimit:10;stroke-width:2px;}</style></defs><g id="Capa_25" data-name="Capa 25"><path class="cls-1" d="M349.47,204c37,0,43-15,43-15s8.5-6.5,5.5-10.5-18-14-21-26-1-19.94-10-29c-4-4,10-11-11-39a37.24,37.24,0,0,0-16,7c-8,6-10,9-10,10s-22,1-22,1c-22-16-42-21-42-21s-13,19-8,31,10,21,16,27-9,24-9,24l8-5s-5.65,41.48-28,43c-14.68,1-33.68,1-33.68,1s-38,1-55.32-4c-38.89-11.23-72.68,24-88.39,44.87-10.13,13.47-2.29,41.13-2.29,41.13l3-8,4,28,4-16s-1.32,9,2.68,21,10,16,10,16c5,9,3,28,3,28,1,21,13,54,13,54a79.67,79.67,0,0,0,15,19h17.68a18.19,18.19,0,0,0-5.68-14c-8-8-7-40-7-40,4-12,33-31,33-31l-4,9c-4,15,27,65,27,65l4,7,15,1c0-6-2-8-2-8-26-43-17-65-17-65,18-6,23-18,23-18l18,4c5,14,8,84,8,84,3,9,12,11,12,11l2-2c5-43,21-89,21-89,13-9,17-3,17-3,9,27,6,33,6,33-8,25-25,34-25,34v7l2,4c3-1,6-5,6-5,25-13,33-26,33-26,16-20,12-58,12-58a31.94,31.94,0,0,0,5-19c11-7,12-16,12-16,17-22,18-45,18-45l3,8-1-37,7,3-5-7,6,1Z"/></g></svg>