<svg xmlns="http://www.w3.org/2000/svg" viewBox="0 0 197 171"><defs><style>.cls-1{fill:#f7931e;stroke:#f7931e;stroke-width:2px;}.cls-1,.cls-2{stroke-miterlimit:10;}.cls-2{fill:none;stroke:#fff;stroke-width:5px;}.cls-3{fill:#faffe6;}</style></defs><g id="Capa_36" data-name="Capa 36"><circle class="cls-1" cx="101.73" cy="85.38" r="59.38"/><polygon class="cls-2" points="73.04 56.02 133.09 56.02 133.09 114.99 73.04 114.99 73.04 98.89 73.04 56.02"/><polyline class="cls-2" points="73.38 97.06 90.12 85.51 102.73 91.28 116.75 75.04 133.76 85.38"/><line class="cls-2" x1="88.72" y1="61.03" x2="88.72" y2="79.67"/><line class="cls-2" x1="78.86" y1="70.35" x2="98.45" y2="70.35"/><path class="cls-3" d="M104.51,101.12l-.77.68-.43.35c-.13.11,0,0,0,0a2.83,2.83,0,0,1-.28.2,7.86,7.86,0,0,1-.87.54L102,103c-.06,0-.26.09,0,0-.16,0-.3.11-.46.15a2.39,2.39,0,0,1-.45.09s.33,0,0,0h-.23l-.41,0c-.21,0,.27.06.06,0a2.8,2.8,0,0,1-.28-.06c-.06,0-.44-.14-.25-.06s-.16-.09-.22-.13l-.18-.12c.26.17.09.08,0,0s-.11-.11-.16-.16.07.17,0,0l-.17-.29c.06,0,.1.32,0,.1a1.21,1.21,0,0,1,0-.18c0-.08-.13-.4-.05-.17s0,0,0,0v-.24s0-.19,0-.19-.07.31,0,.16,0-.26.09-.39.06-.32.11-.33-.14.28,0,.08l.11-.23c.06-.1.12-.21.19-.31a.82.82,0,0,1,.11-.17c-.09,0-.17.2,0,.06s.4-.54.58-.58c-.12,0-.21.15-.05,0l.17-.11a3.07,3.07,0,0,1,.31-.17s.27-.12.12-.06l.08,0,.6-.17.27-.06c.11,0,.3,0,.07,0,.21,0,.42,0,.63,0a9.42,9.42,0,0,1,1.19,0c.22,0,.43,0,.64.06l.21,0c.47.06-.29,0,.17,0l1.26.22a1.55,1.55,0,0,0,1.85-1,1.53,1.53,0,0,0-1-1.85,15.58,15.58,0,0,0-5.77-.26,6,6,0,0,0-4,2.79,4.83,4.83,0,0,0-.31,4.6,4.53,4.53,0,0,0,4.47,2.25c2.2-.2,3.87-1.56,5.45-3a1.5,1.5,0,0,0,0-2.12,1.53,1.53,0,0,0-2.12,0Z"/><path class="cls-3" d="M96.71,108.39a10.87,10.87,0,0,0,3.19-7.27c.18-4.9-4.39-9.29-9.24-9.17-5.26.12-10.23,3.9-10.25,9.54a9.32,9.32,0,0,0,6.87,8.9,20.64,20.64,0,0,0,5.6.36,77.91,77.91,0,0,1,10.13.47l-2.39-.32c3.67.5,7.14,1.34,10.83.43a10.61,10.61,0,0,0,7.71-7.7c.69-2.28.83-4.82,1.76-7L120,98.75s0-.09.07-.14l-1.4,1.82a6.51,6.51,0,0,1,.93-.81L117.79,101c2.17-1.63,4.72-2.21,6.78-4.07,3.61-3.27,4.05-8.3,2.7-12.73a9.37,9.37,0,0,0-4.14-5.38,9.18,9.18,0,0,0-6.93-.91c-4.54,1.47-7.76,6.25-6.29,11.07a12.46,12.46,0,0,1,.41,1.68l-.33-2.4a4.5,4.5,0,0,1,0,1l.32-2.39a2.81,2.81,0,0,1-.15.55l.91-2.15a1.28,1.28,0,0,1-.17.3l1.41-1.82a2.84,2.84,0,0,1-.49.49l1.82-1.41c-1.16.79-2.59,1.15-3.8,1.87a13.49,13.49,0,0,0-6.47,7.6c-.76,2.37-.88,5-1.85,7.28l.91-2.15a1.08,1.08,0,0,1-.14.26l1.41-1.82,0,0,1.82-1.4a1.11,1.11,0,0,1-.41.19l2.15-.91a6.33,6.33,0,0,1-1.14.28l2.39-.32a10.88,10.88,0,0,1-2.42-.07l2.39.32A99.92,99.92,0,0,0,98,92.81c-2.68-.1-5.48.23-8.14-.08l2.39.33L92,93l2.15.91-.08,0,1.82,1.41,0,0L97.21,97l0,0,1.23,4.54v-.05l-.32,2.39,0-.06L97.2,106l0,0-1.41,1.82a.69.69,0,0,1,.13-.11L94.14,109l.28-.16-2.15.91a2.66,2.66,0,0,1,.55-.16l-2.4.32a1.41,1.41,0,0,1,.29,0l-2.4-.32.08,0-2.15-.9.06,0-1.83-1.41,0,0-2.32-4,0,.06-.32-2.39v.08l.33-2.4,0,.1.91-2.15a2.08,2.08,0,0,1-.22.38l1.4-1.82c-.09.12-.2.24-.3.35-3.19,3.47-3.69,9.35,0,12.73,3.46,3.18,9.32,3.7,12.72,0Z"/><path class="cls-3" d="M126.31,99.24c4.71,0,9.22-4.14,9-9a9.15,9.15,0,0,0-9-9c-4.7,0-9.21,4.14-9,9a9.16,9.16,0,0,0,9,9Z"/><path class="cls-3" d="M125.83,97.32c4.71,0,9.22-4.14,9-9a9.15,9.15,0,0,0-9-9c-4.71,0-9.22,4.14-9,9a9.17,9.17,0,0,0,9,9Z"/><path class="cls-3" d="M128.2,101.81l.19,0-2.39.32h.11l-4.54-1.23,0,0-3.23-3.23,0,0-1.23-4.54v0l.32-2.39,0,.1.9-2.15c-.23.42-.57.78-.84,1.18a13.69,13.69,0,0,0-1.28,2.84l-.1.37a11.79,11.79,0,0,0-.34,2.64,49.3,49.3,0,0,1-.32,6.31l.33-2.39a37.87,37.87,0,0,1-.9,4.46,9.31,9.31,0,0,0,.91,6.93,9,9,0,0,0,12.31,3.23,9.3,9.3,0,0,0,4.14-5.38,54.79,54.79,0,0,0,1.34-7.85c.1-.93.16-1.85.19-2.78s-.09-1.87,0-2.77l-.32,2.39c0-.13.07-.25.11-.38l-.91,2.15a15.38,15.38,0,0,1,1.22-1.87c.14-.25.85-1.94.92-2.2s.33-2.21.34-2.44a9.19,9.19,0,0,0-.78-3.5,4.66,4.66,0,0,0-1.18-2,6.34,6.34,0,0,0-2.56-2.33,7.75,7.75,0,0,0-5.85-1.06,7.38,7.38,0,0,0-1.38.21A9.32,9.32,0,0,0,118,88.59,6.63,6.63,0,0,0,117,91.94a6.86,6.86,0,0,0,.16,3.59,9,9,0,0,0,11.07,6.28Z"/><path class="cls-3" d="M81.54,116c4.71,0,9.22-4.14,9-9a9.16,9.16,0,0,0-9-9c-4.71,0-9.22,4.13-9,9a9.16,9.16,0,0,0,9,9Z"/><path class="cls-3" d="M82.79,108.77c4.71,0,9.22-4.14,9-9a9.15,9.15,0,0,0-9-9c-4.71,0-9.22,4.14-9,9a9.16,9.16,0,0,0,9,9Z"/><path class="cls-3" d="M92.28,105.6c4.71,0,9.22-4.14,9-9a9.16,9.16,0,0,0-9-9c-4.7,0-9.21,4.14-9,9a9.16,9.16,0,0,0,9,9Z"/><path class="cls-3" d="M91.8,114c4.71,0,9.22-4.14,9-9a9.15,9.15,0,0,0-9-9c-4.71,0-9.22,4.13-9,9a9.17,9.17,0,0,0,9,9Z"/><path class="cls-3" d="M101.93,114c4.71,0,9.22-4.14,9-9a9.15,9.15,0,0,0-9-9c-4.71,0-9.22,4.13-9,9a9.16,9.16,0,0,0,9,9Z"/><path class="cls-3" d="M104.69,113.49c4.71,0,9.22-4.13,9-9a9.15,9.15,0,0,0-9-9c-4.7,0-9.21,4.14-9,9a9.16,9.16,0,0,0,9,9Z"/><path class="cls-3" d="M112.86,117.49c4.71,0,9.22-4.13,9-9a9.16,9.16,0,0,0-9-9c-4.71,0-9.22,4.14-9,9a9.16,9.16,0,0,0,9,9Z"/></g></svg>