<svg xmlns="http://www.w3.org/2000/svg" viewBox="0 0 1087.93 1946.76"><defs><style>.cls-1,.cls-12{fill:#faffe6;}.cls-11,.cls-2{fill:#187f64;}.cls-14,.cls-17,.cls-18,.cls-3{fill:#025959;}.cls-4{fill:#f7931e;stroke:#f7931e;stroke-width:2px;}.cls-10,.cls-11,.cls-14,.cls-15,.cls-16,.cls-17,.cls-18,.cls-19,.cls-20,.cls-21,.cls-22,.cls-4,.cls-5,.cls-6,.cls-7,.cls-8,.cls-9{stroke-miterlimit:10;}.cls-10,.cls-15,.cls-16,.cls-19,.cls-21,.cls-22,.cls-5,.cls-6,.cls-7,.cls-8,.cls-9{fill:none;}.cls-10,.cls-22,.cls-5,.cls-6,.cls-7,.cls-8,.cls-9{stroke:#faffe6;}.cls-16,.cls-18,.cls-21,.cls-5{stroke-width:5px;}.cls-6{stroke-width:13px;}.cls-7{stroke-width:4px;}.cls-8{stroke-width:7px;}.cls-15,.cls-17,.cls-19,.cls-9{stroke-width:8px;}.cls-10{stroke-width:18px;}.cls-11,.cls-14{stroke:#7f6e66;}.cls-12{font-size:125px;font-family:Quechely-Regular, Quechely;letter-spacing:0.05em;}.cls-13,.cls-20{fill:#83f2b5;}.cls-14{font-size:44px;font-family:Helvetica;}.cls-15,.cls-21{stroke:#fff;}.cls-16,.cls-17,.cls-18,.cls-19{stroke:#83f2b5;}.cls-20{stroke:#025959;}.cls-20,.cls-22{stroke-width:6px;}</style></defs><g id="Capa_26" data-name="Capa 26"><rect class="cls-1" x="-15" width="1103" height="1952"/></g><g id="Capa_27" data-name="Capa 27"><path class="cls-2" d="M851.16,1660.69h99.9a0,0,0,0,1,0,0v428.42a0,0,0,0,1,0,0H861.59A68.61,68.61,0,0,1,793,2020.5V1718.86A58.17,58.17,0,0,1,851.16,1660.69Z" transform="translate(2746.92 1002.88) rotate(90)"/><path class="cls-3" d="M200.8,1660h89.46a0,0,0,0,1,0,0v423a0,0,0,0,1,0,0h-99.9a58.17,58.17,0,0,1-58.17-58.17V1728.6A68.61,68.61,0,0,1,200.8,1660Z" transform="translate(2082.72 1660.26) rotate(90)"/><path class="cls-4" d="M411.23,1963.14V1825.77a43.7,43.7,0,0,1,43.7-43.7h170.6a43.69,43.69,0,0,1,43.7,43.7v137.37C565.23,1963.07,530.23,1963.07,411.23,1963.14Z"/><polyline class="cls-5" points="452.86 1847.96 452.86 1812.11 484.48 1812.11"/><polyline class="cls-5" points="592.55 1812.07 628.4 1812.07 628.4 1843.7"/><polyline class="cls-5" points="628.25 1889.55 628.25 1925.4 596.63 1925.4"/><polyline class="cls-5" points="488.56 1925.44 452.71 1925.44 452.71 1893.81"/><line class="cls-5" x1="483.58" y1="1881.75" x2="595.69" y2="1881.26"/><line class="cls-5" x1="494.63" y1="1824.45" x2="494.63" y2="1881.26"/><line class="cls-5" x1="512.52" y1="1824.45" x2="512.52" y2="1881.26"/><line class="cls-6" x1="530.41" y1="1824.45" x2="530.41" y2="1881.26"/><line class="cls-6" x1="548.3" y1="1824.45" x2="548.3" y2="1881.26"/><line class="cls-7" x1="563.51" y1="1824.45" x2="563.51" y2="1881.26"/><line class="cls-7" x1="572.46" y1="1824.45" x2="572.46" y2="1881.26"/><line class="cls-8" x1="584.08" y1="1824.45" x2="584.08" y2="1881.26"/><path class="cls-1" d="M496.77,1909.25a6.74,6.74,0,0,0,1,3.42q1.67,2.44,5.87,2.45a10.7,10.7,0,0,0,3.44-.53q3-1,3-3.74a3.23,3.23,0,0,0-1.26-2.88,12.64,12.64,0,0,0-4-1.46l-3.35-.76a15.26,15.26,0,0,1-4.64-1.63,5.18,5.18,0,0,1-2.36-4.63,7.13,7.13,0,0,1,2.31-5.47,9.27,9.27,0,0,1,6.53-2.14,11.33,11.33,0,0,1,6.6,1.88c1.82,1.25,2.72,3.25,2.72,6h-3.15a6.12,6.12,0,0,0-1.07-3c-1-1.29-2.76-1.93-5.2-1.93-2,0-3.4.41-4.26,1.24a3.93,3.93,0,0,0-1.3,2.9,2.84,2.84,0,0,0,1.52,2.66,23.09,23.09,0,0,0,4.49,1.34l3.47.79a10.82,10.82,0,0,1,3.87,1.57,5.85,5.85,0,0,1,2.36,5q0,4.11-3,5.87a13.37,13.37,0,0,1-6.94,1.77,10.37,10.37,0,0,1-7.22-2.35,8,8,0,0,1-2.56-6.35Z"/><path class="cls-1" d="M536.89,1894.31a8.7,8.7,0,0,1,2.88,5.62H536.5a6.8,6.8,0,0,0-2.21-3.79,7,7,0,0,0-4.65-1.4,7.47,7.47,0,0,0-5.9,2.57q-2.25,2.57-2.25,7.87a11.44,11.44,0,0,0,2,7,7.09,7.09,0,0,0,6.05,2.7,6.4,6.4,0,0,0,5.64-2.84,11,11,0,0,0,1.53-3.94H540a11.11,11.11,0,0,1-2.89,6.54,10.26,10.26,0,0,1-7.94,3.19,10.47,10.47,0,0,1-7.24-2.61q-3.85-3.45-3.85-10.66a13.63,13.63,0,0,1,2.89-9,10.58,10.58,0,0,1,8.63-3.8Q534.3,1891.83,536.89,1894.31Z"/><path class="cls-1" d="M552.88,1892.51h3.79l9,24.72H562l-2.51-7.41h-9.78l-2.67,7.41h-3.43Zm5.51,14.59-3.76-10.93-4,10.93Z"/><path class="cls-1" d="M570.3,1892.51h4l12.49,20v-20h3.18v24.72h-3.76l-12.67-20v20h-3.2Z"/><path class="cls-9" d="M253.83,1870.46A32.86,32.86,0,1,1,221,1837.6,32.85,32.85,0,0,1,253.83,1870.46Z"/><line class="cls-10" x1="133.98" y1="1896.61" x2="189.11" y2="1878.51"/><polygon class="cls-9" points="895.72 1913.57 836.08 1913.57 835.72 1860.85 866.26 1830.3 895.72 1861.06 895.72 1913.57"/><polyline class="cls-9" points="825.18 1870.68 865.9 1831.03 906.23 1871"/><rect class="cls-11" x="-2.02" y="-3.07" width="1084" height="156"/><circle class="cls-1" cx="1019.98" cy="45.93" r="11"/><circle class="cls-1" cx="1019.98" cy="80.93" r="11"/><circle class="cls-1" cx="1019.98" cy="115.93" r="11"/><text class="cls-12" transform="translate(76.01 124.92)">PuDu</text></g><g id="Capa_28" data-name="Capa 28"><rect class="cls-13" x="169.46" y="402.5" width="734" height="734" rx="59.6"/></g><g id="Capa_30" data-name="Capa 30"><rect class="cls-13" x="81.71" y="1192.59" width="924.5" height="364.41" rx="20.48"/><text class="cls-14" transform="translate(117.68 1249.67)">Agrega un comentario! </text></g><g id="Capa_32" data-name="Capa 32"><path class="cls-3" d="M461.22,1737.2H480.1a22.31,22.31,0,0,0,22.32-22.31v-87.57A22.32,22.32,0,0,0,480.1,1605H392.53a22.32,22.32,0,0,0-22.32,22.32v87.57a22.32,22.32,0,0,0,22.32,22.31h48.16l.55-50.63-17.93-.35v-19.69l16.87-.7V1644c4.22-19,24.62-18.29,24.62-18.29H481V1644l-13.36.7c-6.33,1.41-6.33,8.44-6.33,8.44v13.36l19.69-.7.7,20.39-20.39.7Z"/></g><g id="Capa_31" data-name="Capa 31"><rect class="cls-2" x="559.08" y="1605" width="132.5" height="132.5" rx="27.08"/><polygon class="cls-15" points="662.3 1636.54 581.72 1666.81 610.46 1684.69 628.74 1716.5 662.3 1636.54"/><line class="cls-15" x1="658.5" y1="1640.26" x2="610.46" y2="1684.69"/></g><g id="Capa_34" data-name="Capa 34"><path class="cls-3" d="M288.21,1136H795.14s-.07-282-251.77-282C287.2,854,288.21,1136,288.21,1136Z"/><path class="cls-3" d="M732.32,733.68c-29,134.74-141,252.43-187.65,252.43-63.64,0-161.42-89.83-192.12-207-43.78-167,72.49-226.27,192.12-226.27C680,552.89,754.66,629.73,732.32,733.68Z"/><path class="cls-3" d="M346.91,693.64c65.58-20.21,100.55-125.86,100.55-125.86-45.5-36.35-110.47-48.14-143-51.89a18.24,18.24,0,0,0-20.29,18.31C285.67,683.18,346.91,693.64,346.91,693.64Z"/><path class="cls-3" d="M790,523.71C727.81,506,639.17,573.19,639.17,573.19c13.68,52.9,56.68,96.08,79.45,115.94,7.62,6.65,20,4.64,26.29-4.26C830.9,563.88,790,523.71,790,523.71Z"/><path class="cls-16" d="M532.37,848.86,519,833.61a15.13,15.13,0,0,1,11.37-25.11h27.23a15.13,15.13,0,0,1,11.2,25.3L554.94,849A15.13,15.13,0,0,1,532.37,848.86Z"/><rect class="cls-17" x="550" y="662" width="214" height="171" rx="30.49"/><circle class="cls-13" cx="659.5" cy="749.5" r="45.5"/><path class="cls-18" d="M456,1134C597.5,922.5,585,820,585,820c1-22,10.48-28.7,20.14-29.66a26.19,26.19,0,0,1,26.5,16.22C649,848.23,639.5,943.5,639.5,943.5c-15,146-39.44,192.19-39.44,192.19"/><path class="cls-19" d="M433.34,751c39.49-20.28,66.77,17,66.77,17"/><path class="cls-18" d="M626.5,1134.69l14.84-36a607.26,607.26,0,0,0,46.13-228.46c0-.53,0-1.05,0-1.58.07-27.93-1.79-42.08,3.15-58.11,5.87-19,24.56-20.29,24.56-20.29C746.5,787.5,750,861,750,861l23,273"/><path class="cls-18" d="M594,795c11.51,19.5,10.51,30.5,10.51,30.5"/><path class="cls-18" d="M606,790.16c12.46,4.34,12.46,31.34,12.46,31.34"/><path class="cls-18" d="M700.61,796.51C712.12,816,711.12,827,711.12,827"/><path class="cls-18" d="M712.66,791.67C725.12,796,725.12,823,725.12,823"/><ellipse class="cls-17" cx="723" cy="685" rx="12" ry="3"/><path class="cls-17" d="M625,659l7.18-16.51a10.79,10.79,0,0,1,9.9-6.49h37.06a10.79,10.79,0,0,1,10.21,7.29l5.4,15.73"/><circle class="cls-20" cx="659.5" cy="749.5" r="34.5"/><polyline class="cls-16" points="434.68 592.37 389.38 581.38 419.14 601.84 376.33 617.25 405.5 615.05 376.33 637.98 348.14 645.84 365.14 654.84"/><polyline class="cls-16" points="641.79 592.81 687.26 581.82 657.39 602.29 700.35 617.7 671.07 615.49 700.35 638.43 728.64 646.29 711.58 655.29"/><path class="cls-18" d="M458.64,581.38l10.72-60.29c4.78-29.25,22.78-30.57,22.78-30.57l10.61,11v51.74l15.08,28.59-15.08,15.7C477.14,618.84,458.64,581.38,458.64,581.38Z"/><path class="cls-18" d="M626.63,581.77,615.4,521.48c-5-29.25-23.86-30.57-23.86-30.57l-11.1,11v51.75l-15.8,28.58,15.8,15.7C607.25,619.23,626.63,581.77,626.63,581.77Z"/><path class="cls-16" d="M543.74,854c-26.86,37.5-53.86,6.5-53.86,6.5"/><path class="cls-16" d="M583,861.15c-22.15,29.37-40.87-.5-40.87-.5"/></g><g id="Capa_33" data-name="Capa 33"><circle class="cls-4" cx="662.38" cy="1038.36" r="59.38"/><polygon class="cls-21" points="633.69 1009 693.74 1009 693.74 1067.97 633.69 1067.97 633.69 1051.86 633.69 1009"/><polyline class="cls-21" points="634.03 1050.03 650.77 1038.48 663.38 1044.26 677.4 1028.01 694.41 1038.36"/><line class="cls-21" x1="649.37" y1="1014" x2="649.37" y2="1032.65"/><line class="cls-21" x1="639.51" y1="1023.32" x2="659.1" y2="1023.32"/><path class="cls-1" d="M665.16,1054.09l-.77.69-.43.35c-.13.11,0,0,0,0l-.28.2a7.77,7.77,0,0,1-.87.53c-.08.05-.16.08-.24.12s-.26.09,0,0c-.15,0-.3.11-.46.15a1.82,1.82,0,0,1-.45.1s.33,0,.05,0h-.64c-.21,0,.27.06.06,0l-.28-.06c-.06,0-.44-.14-.25-.07s-.16-.09-.22-.12l-.18-.13c.26.18.1.08,0,0l-.16-.16c-.18-.18.07.17,0,0l-.17-.29c.06,0,.1.31,0,.09,0-.06,0-.12,0-.18s-.13-.39,0-.17,0,.06,0,0v-.23s0-.19,0-.2-.07.32,0,.16.05-.26.09-.38.06-.32.11-.34-.14.28,0,.08.07-.15.11-.23.12-.2.19-.3a.82.82,0,0,1,.11-.17c-.09,0-.17.2,0,.06s.4-.55.59-.58c-.13,0-.22.14-.06,0l.17-.12a3.07,3.07,0,0,1,.31-.17s.27-.12.12-.06.07,0,.08,0q.3-.11.6-.18l.27,0c.11,0,.3-.06.08,0l.62-.05a11.76,11.76,0,0,1,1.19,0l.64.06.22,0c.46.06-.3,0,.16,0l1.26.21a1.54,1.54,0,0,0,1.85-1,1.51,1.51,0,0,0-1-1.84,15.79,15.79,0,0,0-5.77-.27,6,6,0,0,0-4.05,2.8,4.84,4.84,0,0,0-.31,4.59,4.53,4.53,0,0,0,4.47,2.25c2.2-.2,3.87-1.56,5.45-3a1.5,1.5,0,0,0,0-2.12,1.54,1.54,0,0,0-2.12,0Z"/><path class="cls-1" d="M657.36,1061.36a10.85,10.85,0,0,0,3.19-7.27c.18-4.9-4.39-9.28-9.24-9.17-5.26.13-10.23,3.9-10.25,9.54a9.31,9.31,0,0,0,6.87,8.9,20.64,20.64,0,0,0,5.6.36,77.91,77.91,0,0,1,10.13.47l-2.39-.32c3.67.5,7.14,1.34,10.83.43a10.59,10.59,0,0,0,7.71-7.7c.69-2.28.83-4.82,1.76-7l-.91,2.15a.64.64,0,0,1,.08-.14l-1.41,1.82a6.51,6.51,0,0,1,.93-.81l-1.82,1.4c2.17-1.62,4.73-2.2,6.78-4.06,3.61-3.28,4-8.31,2.7-12.74a9.44,9.44,0,0,0-4.14-5.38,9.17,9.17,0,0,0-6.93-.9c-4.54,1.46-7.76,6.24-6.29,11.07a12,12,0,0,1,.41,1.67l-.33-2.39a4.42,4.42,0,0,1,0,1l.32-2.39a2.48,2.48,0,0,1-.15.55l.91-2.15a1.11,1.11,0,0,1-.17.3l1.41-1.82a2.84,2.84,0,0,1-.49.49l1.82-1.41c-1.16.8-2.59,1.15-3.8,1.88a13.44,13.44,0,0,0-6.47,7.59c-.76,2.38-.88,5-1.84,7.29l.9-2.15a1.65,1.65,0,0,1-.14.26l1.41-1.82,0,.05,1.82-1.41a1,1,0,0,1-.41.19l2.15-.9a7.3,7.3,0,0,1-1.14.28l2.39-.32a10.88,10.88,0,0,1-2.42-.08l2.39.33a99.92,99.92,0,0,0-10.49-1.2c-2.68-.11-5.48.22-8.14-.08l2.39.32a1,1,0,0,1-.25-.06l2.15.91-.08,0,1.82,1.4,0,0,1.41,1.82,0,0,1.23,4.54v0l-.32,2.39,0,0-.91,2.15,0-.06-1.41,1.82.13-.11-1.82,1.41a1.51,1.51,0,0,1,.28-.15l-2.15.91a2.16,2.16,0,0,1,.55-.16l-2.4.32h.29l-2.4-.32.08,0-2.15-.91.06,0-1.83-1.41,0,.05-2.32-4,0,.06-.32-2.4v.08l.32-2.39,0,.09.9-2.15a1.87,1.87,0,0,1-.22.39l1.4-1.83c-.09.13-.2.24-.3.36-3.19,3.46-3.69,9.34,0,12.72,3.46,3.19,9.32,3.71,12.72,0Z"/><path class="cls-1" d="M687,1052.21c4.71,0,9.22-4.14,9-9a9.15,9.15,0,0,0-9-9c-4.7,0-9.21,4.14-9,9a9.16,9.16,0,0,0,9,9Z"/><path class="cls-1" d="M686.48,1050.29c4.71,0,9.22-4.14,9-9a9.16,9.16,0,0,0-9-9c-4.7,0-9.21,4.14-9,9a9.16,9.16,0,0,0,9,9Z"/><path class="cls-1" d="M688.85,1054.79l.19,0-2.39.32h.11l-4.54-1.23h0l-3.23-3.23,0,0-1.23-4.55v0l.32-2.39,0,.09.9-2.15a13.37,13.37,0,0,1-.84,1.18,13.92,13.92,0,0,0-1.28,2.84c0,.13-.07.25-.1.38a11.63,11.63,0,0,0-.34,2.63,51.09,51.09,0,0,1-.31,6.31l.32-2.39a37.47,37.47,0,0,1-.9,4.46,9.33,9.33,0,0,0,.91,6.94,9,9,0,0,0,12.31,3.23,9.36,9.36,0,0,0,4.14-5.38,53.79,53.79,0,0,0,1.34-7.86c.1-.92.16-1.85.19-2.78s-.09-1.87,0-2.77l-.32,2.39c0-.13.07-.25.11-.37l-.91,2.15a15.38,15.38,0,0,1,1.22-1.87c.14-.25.85-1.94.92-2.21s.34-2.2.34-2.43a9.11,9.11,0,0,0-.78-3.5,4.55,4.55,0,0,0-1.18-2,6.29,6.29,0,0,0-2.56-2.34,10.13,10.13,0,0,0-4.54-1.22,8.69,8.69,0,0,0-1.31.16,9.51,9.51,0,0,0-1.38.21,9.37,9.37,0,0,0-5.38,4.14,6.6,6.6,0,0,0-1.07,3.34,6.85,6.85,0,0,0,.16,3.59,9.13,9.13,0,0,0,4.14,5.38,9.26,9.26,0,0,0,6.93.91Z"/><path class="cls-1" d="M642.19,1069c4.71,0,9.22-4.14,9-9a9.15,9.15,0,0,0-9-9c-4.71,0-9.22,4.14-9,9a9.15,9.15,0,0,0,9,9Z"/><path class="cls-1" d="M643.44,1061.74c4.71,0,9.22-4.14,9-9a9.16,9.16,0,0,0-9-9c-4.7,0-9.21,4.14-9,9a9.16,9.16,0,0,0,9,9Z"/><path class="cls-1" d="M652.93,1058.58c4.71,0,9.22-4.14,9-9a9.15,9.15,0,0,0-9-9c-4.7,0-9.21,4.14-9,9a9.17,9.17,0,0,0,9,9Z"/><path class="cls-1" d="M652.45,1067c4.71,0,9.22-4.14,9-9a9.15,9.15,0,0,0-9-9c-4.7,0-9.21,4.14-9,9a9.16,9.16,0,0,0,9,9Z"/><path class="cls-1" d="M662.58,1067c4.71,0,9.22-4.14,9-9a9.15,9.15,0,0,0-9-9c-4.71,0-9.22,4.14-9,9a9.16,9.16,0,0,0,9,9Z"/><path class="cls-1" d="M665.35,1066.47c4.7,0,9.21-4.14,9-9a9.16,9.16,0,0,0-9-9c-4.71,0-9.22,4.14-9,9a9.15,9.15,0,0,0,9,9Z"/><path class="cls-1" d="M673.51,1070.47c4.71,0,9.22-4.14,9-9a9.15,9.15,0,0,0-9-9c-4.71,0-9.22,4.14-9,9a9.16,9.16,0,0,0,9,9Z"/><circle class="cls-4" cx="809.38" cy="1038.62" r="59.38"/><rect class="cls-22" x="778" y="1015" width="65" height="49" rx="8.15"/><circle class="cls-22" cx="810" cy="1041" r="12"/><polyline class="cls-22" points="798 1014 800 1004 822 1004 824.23 1014"/><circle class="cls-22" cx="831.5" cy="1026.5" r="1.5"/><rect class="cls-16" x="76.5" y="195.5" width="930" height="151" rx="49.08"/></g></svg>