<svg xmlns="http://www.w3.org/2000/svg" viewBox="0 0 412 274"><defs><style>.cls-1{fill:#f7931e;stroke:#f7931e;stroke-width:2px;}.cls-1,.cls-2,.cls-3,.cls-4,.cls-5{stroke-miterlimit:10;}.cls-2,.cls-3,.cls-4,.cls-5{fill:none;stroke:#faffe6;}.cls-2{stroke-width:5px;}.cls-3{stroke-width:13px;}.cls-4{stroke-width:4px;}.cls-5{stroke-width:7px;}.cls-6{fill:#faffe6;}</style></defs><g id="Capa_25" data-name="Capa 25"><path class="cls-1" d="M76.92,221V95.64a43.71,43.71,0,0,1,43.7-43.7h170.6a43.71,43.71,0,0,1,43.7,43.7V221C253.92,223.94,168.92,219.94,76.92,221Z"/><polyline class="cls-2" points="118.55 117.84 118.55 81.98 150.17 81.98"/><polyline class="cls-2" points="258.24 81.94 294.09 81.94 294.09 113.57"/><polyline class="cls-2" points="293.94 159.42 293.94 195.27 262.31 195.27"/><polyline class="cls-2" points="154.25 195.31 118.4 195.31 118.4 163.69"/><line class="cls-2" x1="149.27" y1="151.62" x2="261.38" y2="151.13"/><line class="cls-2" x1="160.32" y1="94.32" x2="160.32" y2="151.13"/><line class="cls-2" x1="178.21" y1="94.32" x2="178.21" y2="151.13"/><line class="cls-3" x1="196.1" y1="94.32" x2="196.1" y2="151.13"/><line class="cls-3" x1="213.99" y1="94.32" x2="213.99" y2="151.13"/><line class="cls-4" x1="229.2" y1="94.32" x2="229.2" y2="151.13"/><line class="cls-4" x1="238.14" y1="94.32" x2="238.14" y2="151.13"/><line class="cls-5" x1="249.77" y1="94.32" x2="249.77" y2="151.13"/><path class="cls-6" d="M162.45,179.12a6.74,6.74,0,0,0,1,3.42q1.67,2.46,5.87,2.46a10.33,10.33,0,0,0,3.43-.54c2-.7,3-1.94,3-3.74a3.24,3.24,0,0,0-1.26-2.88,12.74,12.74,0,0,0-4-1.46l-3.35-.76a15.26,15.26,0,0,1-4.64-1.63,5.18,5.18,0,0,1-2.36-4.63,7.13,7.13,0,0,1,2.31-5.47,9.27,9.27,0,0,1,6.53-2.14,11.33,11.33,0,0,1,6.6,1.88q2.72,1.88,2.72,6h-3.15a6.15,6.15,0,0,0-1.07-3c-1-1.28-2.76-1.93-5.2-1.93-2,0-3.4.41-4.26,1.24a3.93,3.93,0,0,0-1.3,2.9,2.83,2.83,0,0,0,1.52,2.66,21.7,21.7,0,0,0,4.49,1.34l3.47.79a10.82,10.82,0,0,1,3.87,1.57,5.86,5.86,0,0,1,2.35,5q0,4.11-3,5.88a13.46,13.46,0,0,1-6.94,1.76,10.36,10.36,0,0,1-7.22-2.35,7.94,7.94,0,0,1-2.56-6.35Z"/><path class="cls-6" d="M202.58,164.18a8.72,8.72,0,0,1,2.88,5.62h-3.27A6.84,6.84,0,0,0,200,166a7,7,0,0,0-4.65-1.39,7.46,7.46,0,0,0-5.9,2.56c-1.5,1.71-2.25,4.34-2.25,7.87a11.44,11.44,0,0,0,2,7,7.09,7.09,0,0,0,6,2.7A6.38,6.38,0,0,0,200.9,182a11,11,0,0,0,1.53-3.94h3.26a11.14,11.14,0,0,1-2.89,6.55,10.31,10.31,0,0,1-8,3.18,10.46,10.46,0,0,1-7.23-2.61q-3.85-3.45-3.86-10.65a13.6,13.6,0,0,1,2.9-9,10.56,10.56,0,0,1,8.63-3.81Q200,161.7,202.58,164.18Z"/><path class="cls-6" d="M218.57,162.38h3.79l9,24.72h-3.67l-2.51-7.41h-9.78l-2.67,7.41h-3.44Zm5.5,14.59-3.75-10.92-4,10.92Z"/><path class="cls-6" d="M236,162.38h4l12.48,20v-20h3.19V187.1h-3.76l-12.67-20v20H236Z"/></g></svg>