<svg xmlns="http://www.w3.org/2000/svg" viewBox="0 0 369 383"><defs><style>.cls-1{fill:#025959;}</style></defs><g id="Capa_36" data-name="Capa 36"><path class="cls-1" d="M209.4,257.6h18.89a22.31,22.31,0,0,0,22.31-22.31V147.71a22.31,22.31,0,0,0-22.31-22.31H140.71a22.31,22.31,0,0,0-22.31,22.31v87.58a22.31,22.31,0,0,0,22.31,22.31h48.16l.55-50.63-17.93-.35V186.93l16.88-.7v-21.8c4.22-19,24.61-18.29,24.61-18.29h16.17v18.29l-13.36.7c-6.33,1.41-6.33,8.44-6.33,8.44v13.36l19.69-.7.71,20.39-20.4.7Z"/></g></svg>