<svg xmlns="http://www.w3.org/2000/svg" viewBox="0 0 1099 948"><defs><style>.cls-1{fill:#f7931e;stroke:#f7931e;stroke-miterlimit:10;stroke-width:2px;}</style></defs><g id="Capa_25" data-name="Capa 25"><path class="cls-1" d="M163.57,213.23h4.86v31.6H186.6v4.27h-23Z"/><path class="cls-1" d="M212.24,225.56q3.48,3.38,3.49,9.92a17,17,0,0,1-3.08,10.44q-3.08,4.14-9.54,4.13a10.78,10.78,0,0,1-8.57-3.65q-3.18-3.65-3.18-9.8c0-4.4,1.12-7.89,3.35-10.5a11.23,11.23,0,0,1,9-3.91A11.88,11.88,0,0,1,212.24,225.56ZM209.51,243a16.4,16.4,0,0,0,1.63-7.36,13.14,13.14,0,0,0-1.17-6q-1.86-3.62-6.4-3.61a6.3,6.3,0,0,0-5.86,3.07,14.29,14.29,0,0,0-1.83,7.43,12.38,12.38,0,0,0,1.83,6.95,6.45,6.45,0,0,0,5.81,2.79C206.43,246.27,208.43,245.16,209.51,243Z"/><path class="cls-1" d="M223.42,223h4.18v4.52a10,10,0,0,1,2.51-3.21,6.55,6.55,0,0,1,4.62-1.89,3.69,3.69,0,0,1,.41,0l1,.1v4.64a5.16,5.16,0,0,0-.72-.1c-.21,0-.46,0-.72,0a6.29,6.29,0,0,0-5.1,2.14,7.43,7.43,0,0,0-1.78,4.92v15h-4.4Z"/><path class="cls-1" d="M258.59,223.67a10,10,0,0,1,4,3.38,11.62,11.62,0,0,1,1.75,4.62,30.16,30.16,0,0,1,.39,5.76H245.55a11.17,11.17,0,0,0,1.88,6.38,6.28,6.28,0,0,0,5.44,2.41,7.06,7.06,0,0,0,5.5-2.27,7.76,7.76,0,0,0,1.66-3h4.32a9.1,9.1,0,0,1-1.14,3.21,11.3,11.3,0,0,1-2.16,2.89,10.25,10.25,0,0,1-4.95,2.64,15.13,15.13,0,0,1-3.59.39,11,11,0,0,1-8.28-3.56q-3.39-3.54-3.39-9.94a15,15,0,0,1,3.42-10.23,11.25,11.25,0,0,1,8.93-3.93A11.93,11.93,0,0,1,258.59,223.67Zm1.61,10.27a11.41,11.41,0,0,0-1.25-4.57q-1.8-3.17-6-3.17a6.71,6.71,0,0,0-5.08,2.18,8.29,8.29,0,0,0-2.17,5.56Z"/><path class="cls-1" d="M272.46,223h4.35v3.71a14.77,14.77,0,0,1,2.83-2.81,8.53,8.53,0,0,1,4.93-1.48,7.8,7.8,0,0,1,5,1.53,8.09,8.09,0,0,1,1.95,2.59,9.09,9.09,0,0,1,7.89-4.12c3.51,0,5.91,1.26,7.18,3.8a12.53,12.53,0,0,1,1,5.52V249.1h-4.56V230.93c0-1.74-.44-2.93-1.31-3.58a5.17,5.17,0,0,0-3.19-1,6.33,6.33,0,0,0-4.45,1.73q-1.87,1.74-1.87,5.79V249.1h-4.47V232a9,9,0,0,0-.63-3.88c-.67-1.22-1.91-1.83-3.74-1.83a6.43,6.43,0,0,0-4.53,1.93c-1.36,1.29-2,3.61-2,7V249.1h-4.4Z"/><path class="cls-1" d="M332.7,213.23h4.47v5H332.7Zm0,9.84h4.47v26H332.7Z"/><path class="cls-1" d="M345.82,223.07h4.27v3.47a10.67,10.67,0,0,1,2.88-2.76,9.26,9.26,0,0,1,5.23-1.46,9.82,9.82,0,0,1,7.54,3.4q3.11,3.41,3.1,9.73,0,8.55-4.47,12.21a10.1,10.1,0,0,1-6.59,2.32,8.86,8.86,0,0,1-4.95-1.3,11,11,0,0,1-2.62-2.51v13.35h-4.39Zm16.49,20.5q2-2.58,2-7.7a14.37,14.37,0,0,0-.9-5.37,6.24,6.24,0,0,0-6.25-4.33c-3.05,0-5.13,1.53-6.25,4.57a17.88,17.88,0,0,0-.91,6.2,13,13,0,0,0,.91,5.15,6.64,6.64,0,0,0,11.36,1.48Z"/><path class="cls-1" d="M378.93,240.9a6.38,6.38,0,0,0,1.1,3.36q1.67,2.13,5.76,2.13a8.59,8.59,0,0,0,4.3-1.06,3.55,3.55,0,0,0,1.85-3.29,2.8,2.8,0,0,0-1.49-2.56,17.72,17.72,0,0,0-3.76-1.25l-3.49-.87a17.33,17.33,0,0,1-4.93-1.86,5.54,5.54,0,0,1-2.83-4.93,7.54,7.54,0,0,1,2.67-6,10.66,10.66,0,0,1,7.19-2.29q5.91,0,8.52,3.46a7.57,7.57,0,0,1,1.59,4.74h-4.15a5.09,5.09,0,0,0-1.05-2.71Q388.7,226,385,226a6.22,6.22,0,0,0-3.77.95,3,3,0,0,0-1.28,2.51,3.11,3.11,0,0,0,1.68,2.74,10,10,0,0,0,2.88,1.07l2.91.71a22.91,22.91,0,0,1,6.35,2.22,5.91,5.91,0,0,1,2.56,5.3,8.05,8.05,0,0,1-2.65,6q-2.65,2.53-8.07,2.54-5.83,0-8.26-2.65a10,10,0,0,1-2.6-6.55Z"/><path class="cls-1" d="M408.06,223v17.36a7.21,7.21,0,0,0,.64,3.27q1.17,2.34,4.37,2.34a6.17,6.17,0,0,0,6.25-4.1,16.29,16.29,0,0,0,.9-6V223h4.4V249.1h-4.16l.05-3.86a9,9,0,0,1-2.12,2.52,9.39,9.39,0,0,1-6.1,2.05q-5.6,0-7.62-3.74a11.13,11.13,0,0,1-1.1-5.35V223Z"/><path class="cls-1" d="M433.83,223h4.34v3.71a15.06,15.06,0,0,1,2.83-2.81,8.56,8.56,0,0,1,4.94-1.48,7.75,7.75,0,0,1,5,1.53,8.1,8.1,0,0,1,2,2.59,9.37,9.37,0,0,1,3.44-3.11,9.55,9.55,0,0,1,4.44-1c3.52,0,5.91,1.26,7.18,3.8a12.38,12.38,0,0,1,1,5.52V249.1h-4.57V230.93c0-1.74-.43-2.93-1.31-3.58a5.17,5.17,0,0,0-3.18-1,6.36,6.36,0,0,0-4.46,1.73q-1.86,1.74-1.86,5.79V249.1h-4.47V232a8.78,8.78,0,0,0-.64-3.88c-.66-1.22-1.91-1.83-3.73-1.83a6.43,6.43,0,0,0-4.53,1.93c-1.36,1.29-2,3.61-2,7V249.1h-4.39Z"/><path class="cls-1" d="M508.5,223.76a11.8,11.8,0,0,1,2.66,2.56V213.11h4.22v36h-3.95v-3.64a9.5,9.5,0,0,1-3.64,3.49A10.36,10.36,0,0,1,503,250a9.75,9.75,0,0,1-7.57-3.68q-3.2-3.67-3.2-9.78a17,17,0,0,1,2.92-9.9,9.55,9.55,0,0,1,8.34-4.18A9.28,9.28,0,0,1,508.5,223.76Zm-9.87,19.6a6.25,6.25,0,0,0,5.72,2.83,6,6,0,0,0,5-2.62q2-2.62,2-7.53c0-3.31-.68-5.75-2-7.34a6.31,6.31,0,0,0-5-2.38,6.63,6.63,0,0,0-5.39,2.54q-2.06,2.53-2.06,7.47A13,13,0,0,0,498.63,243.36Z"/><path class="cls-1" d="M543.32,225.56q3.48,3.38,3.49,9.92a17,17,0,0,1-3.08,10.44q-3.08,4.14-9.54,4.13a10.78,10.78,0,0,1-8.57-3.65q-3.18-3.65-3.18-9.8c0-4.4,1.12-7.89,3.35-10.5a11.23,11.23,0,0,1,9-3.91A11.88,11.88,0,0,1,543.32,225.56ZM540.6,243a16.53,16.53,0,0,0,1.62-7.36,13.14,13.14,0,0,0-1.17-6q-1.86-3.62-6.4-3.61a6.3,6.3,0,0,0-5.86,3.07,14.29,14.29,0,0,0-1.83,7.43,12.38,12.38,0,0,0,1.83,6.95,6.45,6.45,0,0,0,5.81,2.79C537.51,246.27,539.51,245.16,540.6,243Z"/><path class="cls-1" d="M554.51,213.23h4.39V249.1h-4.39Z"/><path class="cls-1" d="M586.93,225.56q3.5,3.38,3.49,9.92a17,17,0,0,1-3.07,10.44q-3.08,4.14-9.55,4.13a10.8,10.8,0,0,1-8.57-3.65q-3.16-3.65-3.17-9.8c0-4.4,1.11-7.89,3.34-10.5a11.25,11.25,0,0,1,9-3.91A11.84,11.84,0,0,1,586.93,225.56ZM584.21,243a16.53,16.53,0,0,0,1.62-7.36,13.14,13.14,0,0,0-1.17-6c-1.23-2.41-3.37-3.61-6.39-3.61a6.3,6.3,0,0,0-5.86,3.07,14.29,14.29,0,0,0-1.83,7.43,12.38,12.38,0,0,0,1.83,6.95,6.43,6.43,0,0,0,5.81,2.79C581.13,246.27,583.13,245.16,584.21,243Z"/><path class="cls-1" d="M598.12,223h4.18v4.52a10,10,0,0,1,2.51-3.21,6.53,6.53,0,0,1,4.62-1.89,3.78,3.78,0,0,1,.41,0l1,.1v4.64a5.16,5.16,0,0,0-.72-.1q-.33,0-.72,0a6.29,6.29,0,0,0-5.1,2.14,7.43,7.43,0,0,0-1.78,4.92v15h-4.4Z"/><path class="cls-1" d="M635.85,240.9a6.38,6.38,0,0,0,1.1,3.36q1.66,2.13,5.76,2.13a8.59,8.59,0,0,0,4.3-1.06,3.54,3.54,0,0,0,1.86-3.29,2.82,2.82,0,0,0-1.49-2.56,18.15,18.15,0,0,0-3.76-1.25l-3.49-.87a17.41,17.41,0,0,1-4.94-1.86,5.56,5.56,0,0,1-2.83-4.93,7.52,7.52,0,0,1,2.68-6,10.64,10.64,0,0,1,7.19-2.29q5.89,0,8.52,3.46a7.5,7.5,0,0,1,1.58,4.74h-4.15a5.09,5.09,0,0,0-1-2.71q-1.51-1.72-5.25-1.73a6.24,6.24,0,0,0-3.77.95,3,3,0,0,0-1.28,2.51,3.11,3.11,0,0,0,1.68,2.74,10.24,10.24,0,0,0,2.89,1.07l2.9.71a22.91,22.91,0,0,1,6.35,2.22,5.89,5.89,0,0,1,2.56,5.3,8.05,8.05,0,0,1-2.65,6q-2.64,2.53-8.07,2.54-5.84,0-8.26-2.65a10,10,0,0,1-2.6-6.55Z"/><path class="cls-1" d="M660.59,213.23h4.47v5h-4.47Zm0,9.84h4.47v26h-4.47Z"/><path class="cls-1" d="M674.93,215.65h4.44V223h4.18v3.59h-4.18v17.07a1.85,1.85,0,0,0,.93,1.83,3.92,3.92,0,0,0,1.71.27l.68,0c.25,0,.53,0,.86-.06v3.47a10,10,0,0,1-1.58.32,16.09,16.09,0,0,1-1.77.09c-2.05,0-3.44-.52-4.17-1.57a6.94,6.94,0,0,1-1.1-4.09V226.54h-3.54V223h3.54Z"/><path class="cls-1" d="M720.55,233.25a2.37,2.37,0,0,0,2-1.27,3.77,3.77,0,0,0,.3-1.68,3.59,3.59,0,0,0-1.6-3.26,8.67,8.67,0,0,0-4.58-1c-2.3,0-3.92.62-4.88,1.85a6.07,6.07,0,0,0-1,3.05h-4.1q.12-4.83,3.13-6.72a12.89,12.89,0,0,1,7-1.89,14.25,14.25,0,0,1,7.49,1.75,6,6,0,0,1,2.86,5.47v15.07a1.93,1.93,0,0,0,.28,1.1,1.37,1.37,0,0,0,1.18.41,5.29,5.29,0,0,0,.66,0A7.69,7.69,0,0,0,730,246v3.25a11.59,11.59,0,0,1-1.56.37,11.33,11.33,0,0,1-1.46.07,3.62,3.62,0,0,1-3.3-1.61,6.27,6.27,0,0,1-.76-2.42,11.15,11.15,0,0,1-3.85,3.05,11.88,11.88,0,0,1-5.55,1.3,8.25,8.25,0,0,1-5.94-2.21,7.35,7.35,0,0,1-2.31-5.53,7.12,7.12,0,0,1,2.27-5.64,10.79,10.79,0,0,1,6-2.47Zm-9.26,11.89a5.13,5.13,0,0,0,3.3,1.1,10.08,10.08,0,0,0,4.49-1.07,6,6,0,0,0,3.66-5.84v-3.54a7.45,7.45,0,0,1-2.07.86,17.93,17.93,0,0,1-2.49.49l-2.66.34a10,10,0,0,0-3.59,1,3.89,3.89,0,0,0-2,3.66A3.63,3.63,0,0,0,711.29,245.14Z"/><path class="cls-1" d="M736.69,223H741v3.71a14.77,14.77,0,0,1,2.83-2.81,8.53,8.53,0,0,1,4.93-1.48,7.8,7.8,0,0,1,5,1.53,8.09,8.09,0,0,1,1.95,2.59,9.09,9.09,0,0,1,7.89-4.12c3.51,0,5.91,1.26,7.18,3.8a12.53,12.53,0,0,1,1,5.52V249.1h-4.56V230.93c0-1.74-.44-2.93-1.31-3.58a5.17,5.17,0,0,0-3.19-1,6.33,6.33,0,0,0-4.45,1.73q-1.87,1.74-1.87,5.79V249.1H752V232a9,9,0,0,0-.63-3.88c-.67-1.22-1.92-1.83-3.74-1.83a6.43,6.43,0,0,0-4.53,1.93c-1.36,1.29-2,3.61-2,7V249.1h-4.39Z"/><path class="cls-1" d="M797,223.67a10,10,0,0,1,4,3.38,11.77,11.77,0,0,1,1.75,4.62,30.16,30.16,0,0,1,.39,5.76H783.94a11.17,11.17,0,0,0,1.88,6.38,6.27,6.27,0,0,0,5.44,2.41,7.06,7.06,0,0,0,5.5-2.27,7.76,7.76,0,0,0,1.66-3h4.32a9.3,9.3,0,0,1-1.14,3.21,11.3,11.3,0,0,1-2.16,2.89,10.29,10.29,0,0,1-5,2.64,15,15,0,0,1-3.58.39,11,11,0,0,1-8.28-3.56q-3.39-3.54-3.39-9.94a15.07,15.07,0,0,1,3.41-10.23,11.29,11.29,0,0,1,8.94-3.93A11.89,11.89,0,0,1,797,223.67Zm1.62,10.27a11.41,11.41,0,0,0-1.25-4.57q-1.8-3.17-6-3.17a6.71,6.71,0,0,0-5.08,2.18,8.29,8.29,0,0,0-2.17,5.56Z"/><path class="cls-1" d="M811.73,215.65h4.44V223h4.18v3.59h-4.18v17.07a1.85,1.85,0,0,0,.93,1.83,3.92,3.92,0,0,0,1.71.27l.68,0c.25,0,.53,0,.86-.06v3.47a10,10,0,0,1-1.58.32,16.09,16.09,0,0,1-1.77.09c-2,0-3.44-.52-4.17-1.57a6.94,6.94,0,0,1-1.1-4.09V226.54h-3.54V223h3.54Z"/><path class="cls-1" d="M828,254.2a3.08,3.08,0,0,0,2.37-2.37,6.79,6.79,0,0,0,.36-2.12,2.91,2.91,0,0,0,0-.31,2,2,0,0,0-.06-.3H828v-5.32h5.22v4.93a10.69,10.69,0,0,1-1.17,5.1,5.32,5.32,0,0,1-4.05,2.71Z"/><path class="cls-1" d="M876.85,224.34c1.84,1.44,2.95,3.9,3.33,7.4h-4.27a7.91,7.91,0,0,0-1.79-4,5.62,5.62,0,0,0-4.46-1.6,6.17,6.17,0,0,0-6,4.11,16.28,16.28,0,0,0-1.17,6.56,12.32,12.32,0,0,0,1.66,6.62,6.43,6.43,0,0,0,9.56,1,9.25,9.25,0,0,0,2.21-4.57h4.27c-.49,3.46-1.71,6-3.66,7.6a11.48,11.48,0,0,1-7.5,2.41,10,10,0,0,1-8.18-3.75,14.37,14.37,0,0,1-3.05-9.36q0-6.88,3.35-10.72a10.8,10.8,0,0,1,8.52-3.84A11.43,11.43,0,0,1,876.85,224.34Z"/><path class="cls-1" d="M906,225.56q3.48,3.38,3.49,9.92a17,17,0,0,1-3.08,10.44q-3.07,4.14-9.55,4.13a10.8,10.8,0,0,1-8.57-3.65q-3.16-3.65-3.17-9.8c0-4.4,1.12-7.89,3.35-10.5a11.22,11.22,0,0,1,9-3.91A11.88,11.88,0,0,1,906,225.56ZM903.29,243a16.4,16.4,0,0,0,1.63-7.36,13,13,0,0,0-1.18-6Q901.9,226,897.35,226a6.3,6.3,0,0,0-5.86,3.07,14.29,14.29,0,0,0-1.83,7.43,12.38,12.38,0,0,0,1.83,6.95,6.45,6.45,0,0,0,5.81,2.79C900.21,246.27,902.21,245.16,903.29,243Z"/><path class="cls-1" d="M917.08,223h4.18v3.71a11.47,11.47,0,0,1,3.93-3.29,10.42,10.42,0,0,1,4.61-1q5.57,0,7.52,3.88a13.71,13.71,0,0,1,1.07,6.08V249.1h-4.46V232.62a9,9,0,0,0-.71-3.86,4.29,4.29,0,0,0-4.25-2.44,8.64,8.64,0,0,0-2.56.32,7.16,7.16,0,0,0-4.61,4.82,18.71,18.71,0,0,0-.32,3.94v13.7h-4.4Z"/><path class="cls-1" d="M946.09,232.91h12.26v4.52H946.09Z"/><path class="cls-1" d="M194.71,300.9a6.38,6.38,0,0,0,1.1,3.36q1.66,2.13,5.76,2.13a8.59,8.59,0,0,0,4.3-1.06,3.54,3.54,0,0,0,1.86-3.29,2.82,2.82,0,0,0-1.49-2.56,18.15,18.15,0,0,0-3.76-1.25l-3.49-.87a17.41,17.41,0,0,1-4.94-1.86,5.56,5.56,0,0,1-2.83-4.93,7.52,7.52,0,0,1,2.68-6,10.64,10.64,0,0,1,7.19-2.29q5.9,0,8.52,3.46a7.56,7.56,0,0,1,1.58,4.74H207a5.09,5.09,0,0,0-1-2.71q-1.52-1.72-5.25-1.73a6.24,6.24,0,0,0-3.77,1,3,3,0,0,0-1.28,2.51,3.1,3.1,0,0,0,1.69,2.74,10,10,0,0,0,2.88,1.07l2.9.71a22.91,22.91,0,0,1,6.35,2.22,5.89,5.89,0,0,1,2.56,5.3,8.05,8.05,0,0,1-2.65,6q-2.64,2.54-8.07,2.54-5.83,0-8.26-2.65a10,10,0,0,1-2.6-6.55Z"/><path class="cls-1" d="M235.74,283.67a9.94,9.94,0,0,1,4,3.38,11.63,11.63,0,0,1,1.76,4.62,30.16,30.16,0,0,1,.39,5.76H222.7a11.17,11.17,0,0,0,1.88,6.38,6.27,6.27,0,0,0,5.44,2.41,7.06,7.06,0,0,0,5.5-2.27,7.76,7.76,0,0,0,1.66-3.05h4.32a9.3,9.3,0,0,1-1.14,3.21A11.3,11.3,0,0,1,238.2,307a10.3,10.3,0,0,1-4.95,2.64,15.13,15.13,0,0,1-3.59.39,11,11,0,0,1-8.28-3.56q-3.39-3.54-3.39-9.94a15,15,0,0,1,3.41-10.23,11.29,11.29,0,0,1,8.94-3.93A12,12,0,0,1,235.74,283.67Zm1.61,10.27a11.41,11.41,0,0,0-1.25-4.57q-1.8-3.17-6-3.17a6.71,6.71,0,0,0-5.08,2.18,8.29,8.29,0,0,0-2.17,5.56Z"/><path class="cls-1" d="M266.88,284.34c1.85,1.44,3,3.9,3.33,7.4h-4.27a7.9,7.9,0,0,0-1.78-4,5.66,5.66,0,0,0-4.47-1.6,6.16,6.16,0,0,0-6,4.11,16.1,16.1,0,0,0-1.18,6.56,12.41,12.41,0,0,0,1.66,6.62,6.43,6.43,0,0,0,9.56,1,9.09,9.09,0,0,0,2.21-4.57h4.27c-.48,3.46-1.7,6-3.66,7.6a11.43,11.43,0,0,1-7.49,2.41,10,10,0,0,1-8.18-3.75,14.31,14.31,0,0,1-3-9.36q0-6.88,3.34-10.72a10.8,10.8,0,0,1,8.52-3.84A11.41,11.41,0,0,1,266.88,284.34Z"/><path class="cls-1" d="M277.84,275.65h4.44V283h4.18v3.59h-4.18v17.07a1.85,1.85,0,0,0,.93,1.83,3.92,3.92,0,0,0,1.71.27l.68,0c.25,0,.53,0,.86-.06v3.47a10,10,0,0,1-1.58.32,16.09,16.09,0,0,1-1.77.09c-2.05,0-3.44-.52-4.17-1.57a6.94,6.94,0,0,1-1.1-4.09V286.54H274.3V283h3.54Z"/><path class="cls-1" d="M309.48,283.67a9.9,9.9,0,0,1,4,3.38,11.63,11.63,0,0,1,1.76,4.62,30.16,30.16,0,0,1,.39,5.76H296.45a11.17,11.17,0,0,0,1.88,6.38,6.27,6.27,0,0,0,5.44,2.41,7,7,0,0,0,5.49-2.27,7.52,7.52,0,0,0,1.66-3.05h4.33a9.3,9.3,0,0,1-1.14,3.21A11.3,11.3,0,0,1,312,307a10.29,10.29,0,0,1-5,2.64,15,15,0,0,1-3.58.39,11,11,0,0,1-8.28-3.56q-3.39-3.54-3.39-9.94a15.07,15.07,0,0,1,3.41-10.23,11.29,11.29,0,0,1,8.94-3.93A11.92,11.92,0,0,1,309.48,283.67Zm1.62,10.27a11.41,11.41,0,0,0-1.25-4.57q-1.8-3.17-6-3.17a6.71,6.71,0,0,0-5.08,2.18,8.29,8.29,0,0,0-2.17,5.56Z"/><path class="cls-1" d="M324.24,275.65h4.44V283h4.18v3.59h-4.18v17.07a1.85,1.85,0,0,0,.93,1.83,3.92,3.92,0,0,0,1.71.27l.68,0c.24,0,.53,0,.86-.06v3.47a10,10,0,0,1-1.58.32,16.36,16.36,0,0,1-1.77.09c-2.05,0-3.44-.52-4.17-1.57a6.94,6.94,0,0,1-1.1-4.09V286.54H320.7V283h3.54Z"/><path class="cls-1" d="M344,283v17.36a7.35,7.35,0,0,0,.64,3.27q1.17,2.34,4.37,2.34a6.17,6.17,0,0,0,6.25-4.1,16.29,16.29,0,0,0,.9-6V283h4.4V309.1H356.4l.05-3.86a9,9,0,0,1-2.13,2.52,9.39,9.39,0,0,1-6.1,2.05q-5.6,0-7.62-3.74a11.13,11.13,0,0,1-1.1-5.35V283Z"/><path class="cls-1" d="M369.88,283h4.17v4.52a10,10,0,0,1,2.52-3.21,6.51,6.51,0,0,1,4.61-1.89,3.94,3.94,0,0,1,.42,0l1,.1v4.64a5.16,5.16,0,0,0-.72-.1q-.33,0-.72,0a6.27,6.27,0,0,0-5.1,2.14,7.44,7.44,0,0,0-1.79,4.92v15h-4.39Z"/><path class="cls-1" d="M419,293.25a2.38,2.38,0,0,0,2-1.27,3.93,3.93,0,0,0,.29-1.68,3.56,3.56,0,0,0-1.6-3.26,8.6,8.6,0,0,0-4.57-1q-3.45,0-4.89,1.85a6.17,6.17,0,0,0-1,3.05h-4.1q.12-4.83,3.14-6.72a12.88,12.88,0,0,1,7-1.89,14.26,14.26,0,0,1,7.5,1.75,6,6,0,0,1,2.85,5.47v15.07a2,2,0,0,0,.28,1.1,1.39,1.39,0,0,0,1.19.41,5.52,5.52,0,0,0,.66,0c.24,0,.5-.06.78-.11v3.25a12,12,0,0,1-1.56.37,11.4,11.4,0,0,1-1.47.07,3.61,3.61,0,0,1-3.29-1.61,6.27,6.27,0,0,1-.76-2.42,11.19,11.19,0,0,1-3.86,3.05A11.81,11.81,0,0,1,412,310a8.24,8.24,0,0,1-5.94-2.21,7.35,7.35,0,0,1-2.31-5.53,7.12,7.12,0,0,1,2.27-5.64,10.76,10.76,0,0,1,6-2.47Zm-9.25,11.89a5.13,5.13,0,0,0,3.3,1.1,10.11,10.11,0,0,0,4.49-1.07,6,6,0,0,0,3.66-5.84v-3.54a7.66,7.66,0,0,1-2.08.86,17.38,17.38,0,0,1-2.49.49l-2.66.34a10.11,10.11,0,0,0-3.59,1,3.88,3.88,0,0,0-2,3.66A3.6,3.6,0,0,0,409.76,305.14Z"/><path class="cls-1" d="M449.59,283.76a12,12,0,0,1,2.66,2.56V273.11h4.22v36h-4v-3.64a9.5,9.5,0,0,1-3.64,3.49,10.36,10.36,0,0,1-4.81,1.08,9.73,9.73,0,0,1-7.57-3.68q-3.19-3.68-3.2-9.78a16.88,16.88,0,0,1,2.92-9.9,9.54,9.54,0,0,1,8.34-4.18A9.3,9.3,0,0,1,449.59,283.76Zm-9.87,19.6a6.24,6.24,0,0,0,5.72,2.83,6,6,0,0,0,5-2.62q2-2.62,2-7.53c0-3.31-.68-5.75-2-7.34a6.31,6.31,0,0,0-5-2.38,6.63,6.63,0,0,0-5.39,2.54q-2.06,2.53-2.06,7.47A12.94,12.94,0,0,0,439.72,303.36Z"/><path class="cls-1" d="M465.31,273.23h4.47v5h-4.47Zm0,9.84h4.47v26h-4.47Z"/><path class="cls-1" d="M478.43,283.07h4.27v3.47a10.67,10.67,0,0,1,2.88-2.76,9.29,9.29,0,0,1,5.23-1.46,9.8,9.8,0,0,1,7.54,3.4q3.11,3.4,3.1,9.73,0,8.55-4.46,12.21a10.15,10.15,0,0,1-6.6,2.32,8.86,8.86,0,0,1-4.95-1.3,11.18,11.18,0,0,1-2.61-2.51v13.35h-4.4Zm16.49,20.5q2-2.58,2-7.7a14.37,14.37,0,0,0-.9-5.37,6.23,6.23,0,0,0-6.25-4.33c-3.05,0-5.13,1.53-6.25,4.57a18.12,18.12,0,0,0-.91,6.2,13.15,13.15,0,0,0,.91,5.15,6.64,6.64,0,0,0,11.36,1.48Z"/><path class="cls-1" d="M508.93,273.23h4.47v5h-4.47Zm0,9.84h4.47v26h-4.47Z"/><path class="cls-1" d="M525,300.9a6.38,6.38,0,0,0,1.1,3.36q1.67,2.13,5.76,2.13a8.59,8.59,0,0,0,4.3-1.06A3.55,3.55,0,0,0,538,302a2.8,2.8,0,0,0-1.49-2.56,17.72,17.72,0,0,0-3.76-1.25l-3.49-.87a17.33,17.33,0,0,1-4.93-1.86,5.54,5.54,0,0,1-2.83-4.93,7.54,7.54,0,0,1,2.67-6,10.66,10.66,0,0,1,7.19-2.29q5.91,0,8.52,3.46a7.57,7.57,0,0,1,1.59,4.74h-4.15a5.09,5.09,0,0,0-1.05-2.71Q534.77,286,531,286a6.22,6.22,0,0,0-3.77,1,3,3,0,0,0-1.28,2.51,3.11,3.11,0,0,0,1.68,2.74,10,10,0,0,0,2.88,1.07l2.91.71a22.91,22.91,0,0,1,6.35,2.22,5.91,5.91,0,0,1,2.56,5.3,8.05,8.05,0,0,1-2.65,6q-2.65,2.54-8.07,2.54-5.83,0-8.26-2.65a10,10,0,0,1-2.6-6.55Z"/><path class="cls-1" d="M567,284.34c1.85,1.44,3,3.9,3.33,7.4h-4.27a7.9,7.9,0,0,0-1.78-4,5.66,5.66,0,0,0-4.47-1.6,6.16,6.16,0,0,0-6,4.11,16.27,16.27,0,0,0-1.18,6.56,12.41,12.41,0,0,0,1.66,6.62,6.43,6.43,0,0,0,9.56,1,9.17,9.17,0,0,0,2.21-4.57h4.27c-.48,3.46-1.71,6-3.66,7.6a11.43,11.43,0,0,1-7.49,2.41,10,10,0,0,1-8.18-3.75,14.31,14.31,0,0,1-3-9.36q0-6.88,3.34-10.72a10.8,10.8,0,0,1,8.52-3.84A11.41,11.41,0,0,1,567,284.34Z"/><path class="cls-1" d="M577.09,273.23h4.47v5h-4.47Zm0,9.84h4.47v26h-4.47Z"/><path class="cls-1" d="M590.55,283h4.17v3.71a11.66,11.66,0,0,1,3.93-3.29,10.47,10.47,0,0,1,4.62-1c3.71,0,6.21,1.29,7.52,3.88a13.86,13.86,0,0,1,1.07,6.08V309.1h-4.47V292.62a9,9,0,0,0-.7-3.86,4.3,4.3,0,0,0-4.25-2.44,8.71,8.71,0,0,0-2.57.32,6.58,6.58,0,0,0-3.17,2.15,6.47,6.47,0,0,0-1.43,2.67,17.94,17.94,0,0,0-.33,3.94v13.7h-4.39Z"/><path class="cls-1" d="M635.3,284a12,12,0,0,1,2.54,2.49V283.2h4.06V307a17.52,17.52,0,0,1-1.47,7.87q-2.73,5.31-10.33,5.32a12.67,12.67,0,0,1-7.1-1.89,7.38,7.38,0,0,1-3.22-5.92h4.46a5.09,5.09,0,0,0,1.27,2.71,6.52,6.52,0,0,0,4.69,1.46q5.06,0,6.62-3.56.93-2.1.85-7.5a8.55,8.55,0,0,1-3.17,3,10.6,10.6,0,0,1-4.91,1,10.47,10.47,0,0,1-7.43-3q-3.2-3-3.19-10,0-6.57,3.21-10.26a10,10,0,0,1,7.75-3.68A9.52,9.52,0,0,1,635.3,284Zm.54,4.71a6.4,6.4,0,0,0-5.1-2.34,6.31,6.31,0,0,0-6.35,4.34,17.14,17.14,0,0,0-.9,6.08q0,4.43,1.79,6.73a5.8,5.8,0,0,0,4.82,2.31,6.78,6.78,0,0,0,6.67-4.28,13.86,13.86,0,0,0,1.07-5.63C637.84,292.68,637.18,290.28,635.84,288.71Z"/><path class="cls-1" d="M683.39,283.67a10,10,0,0,1,4,3.38,11.62,11.62,0,0,1,1.75,4.62,29.16,29.16,0,0,1,.4,5.76H670.35a11.17,11.17,0,0,0,1.88,6.38,6.29,6.29,0,0,0,5.45,2.41,7.05,7.05,0,0,0,5.49-2.27,7.76,7.76,0,0,0,1.66-3.05h4.32a8.9,8.9,0,0,1-1.14,3.21,11.3,11.3,0,0,1-2.16,2.89,10.25,10.25,0,0,1-5,2.64,15.13,15.13,0,0,1-3.59.39,11,11,0,0,1-8.28-3.56q-3.39-3.54-3.39-9.94a15,15,0,0,1,3.42-10.23,11.26,11.26,0,0,1,8.93-3.93A11.93,11.93,0,0,1,683.39,283.67ZM685,293.94a11.25,11.25,0,0,0-1.25-4.57q-1.8-3.17-6-3.17a6.69,6.69,0,0,0-5.07,2.18,8.25,8.25,0,0,0-2.18,5.56Z"/><path class="cls-1" d="M697.38,273.23h4.4V309.1h-4.4Z"/><path class="cls-1" d="M710.72,273.23h4.47v5h-4.47Zm0,9.84h4.47v26h-4.47Z"/><path class="cls-1" d="M725.06,275.65h4.44V283h4.18v3.59H729.5v17.07a1.85,1.85,0,0,0,.93,1.83,3.92,3.92,0,0,0,1.71.27l.68,0c.24,0,.53,0,.86-.06v3.47a10,10,0,0,1-1.58.32,16.36,16.36,0,0,1-1.77.09c-2.05,0-3.44-.52-4.17-1.57a6.94,6.94,0,0,1-1.1-4.09V286.54h-3.54V283h3.54Z"/><path class="cls-1" d="M741.35,314.2a3.08,3.08,0,0,0,2.37-2.37,6.79,6.79,0,0,0,.36-2.12,2.91,2.91,0,0,0,0-.31,2,2,0,0,0-.06-.3h-2.66v-5.32h5.22v4.93a10.69,10.69,0,0,1-1.17,5.1,5.32,5.32,0,0,1-4,2.71Z"/><path class="cls-1" d="M775.52,300.9a6.39,6.39,0,0,0,1.09,3.36q1.67,2.13,5.77,2.13a8.55,8.55,0,0,0,4.29-1.06,3.54,3.54,0,0,0,1.86-3.29,2.82,2.82,0,0,0-1.49-2.56,18.15,18.15,0,0,0-3.76-1.25l-3.49-.87a17.21,17.21,0,0,1-4.93-1.86,5.55,5.55,0,0,1-2.84-4.93,7.55,7.55,0,0,1,2.68-6,10.66,10.66,0,0,1,7.19-2.29q5.91,0,8.52,3.46a7.57,7.57,0,0,1,1.59,4.74h-4.16a5.09,5.09,0,0,0-1.05-2.71q-1.5-1.72-5.24-1.73a6.28,6.28,0,0,0-3.78,1,3,3,0,0,0-1.28,2.51,3.1,3.1,0,0,0,1.69,2.74,10,10,0,0,0,2.88,1.07l2.9.71a22.78,22.78,0,0,1,6.35,2.22,5.89,5.89,0,0,1,2.56,5.3,8.05,8.05,0,0,1-2.65,6q-2.64,2.54-8.06,2.54-5.83,0-8.27-2.65a10,10,0,0,1-2.6-6.55Z"/><path class="cls-1" d="M816.54,283.67a10,10,0,0,1,4,3.38,11.78,11.78,0,0,1,1.76,4.62,30.16,30.16,0,0,1,.39,5.76H803.5a11.17,11.17,0,0,0,1.88,6.38,6.28,6.28,0,0,0,5.44,2.41,7.06,7.06,0,0,0,5.5-2.27A7.76,7.76,0,0,0,818,300.9h4.32a8.9,8.9,0,0,1-1.14,3.21A11.3,11.3,0,0,1,819,307a10.25,10.25,0,0,1-5,2.64,15.13,15.13,0,0,1-3.59.39,11,11,0,0,1-8.28-3.56q-3.39-3.54-3.39-9.94a15,15,0,0,1,3.42-10.23,11.25,11.25,0,0,1,8.93-3.93A11.93,11.93,0,0,1,816.54,283.67Zm1.61,10.27a11.41,11.41,0,0,0-1.25-4.57q-1.8-3.17-6-3.17a6.72,6.72,0,0,0-5.08,2.18,8.29,8.29,0,0,0-2.17,5.56Z"/><path class="cls-1" d="M844.84,283.76a11.8,11.8,0,0,1,2.66,2.56V273.11h4.22v36h-4v-3.64a9.5,9.5,0,0,1-3.64,3.49,10.36,10.36,0,0,1-4.81,1.08,9.75,9.75,0,0,1-7.57-3.68q-3.19-3.68-3.2-9.78a17,17,0,0,1,2.92-9.9,9.56,9.56,0,0,1,8.34-4.18A9.28,9.28,0,0,1,844.84,283.76ZM835,303.36a6.23,6.23,0,0,0,5.71,2.83,6,6,0,0,0,5-2.62q2-2.62,2-7.53c0-3.31-.67-5.75-2-7.34a6.31,6.31,0,0,0-5-2.38,6.61,6.61,0,0,0-5.38,2.54q-2.07,2.53-2.07,7.47A13,13,0,0,0,835,303.36Z"/><path class="cls-1" d="M891.24,283.76a11.8,11.8,0,0,1,2.66,2.56V273.11h4.22v36h-4v-3.64a9.5,9.5,0,0,1-3.64,3.49,10.36,10.36,0,0,1-4.81,1.08,9.76,9.76,0,0,1-7.57-3.68q-3.2-3.68-3.19-9.78a17,17,0,0,1,2.91-9.9,9.56,9.56,0,0,1,8.34-4.18A9.28,9.28,0,0,1,891.24,283.76Zm-9.86,19.6a6.23,6.23,0,0,0,5.71,2.83,6,6,0,0,0,5-2.62q2-2.62,2-7.53c0-3.31-.68-5.75-2-7.34a6.29,6.29,0,0,0-5-2.38,6.61,6.61,0,0,0-5.38,2.54q-2.07,2.53-2.07,7.47A13,13,0,0,0,881.38,303.36Z"/><path class="cls-1" d="M926.06,285.56q3.5,3.38,3.49,9.92a16.93,16.93,0,0,1-3.08,10.44q-3.08,4.14-9.54,4.13a10.78,10.78,0,0,1-8.57-3.65q-3.18-3.64-3.17-9.8c0-4.4,1.11-7.89,3.34-10.5a11.23,11.23,0,0,1,9-3.91A11.88,11.88,0,0,1,926.06,285.56ZM923.34,303A16.53,16.53,0,0,0,925,295.6a13.14,13.14,0,0,0-1.17-6q-1.86-3.61-6.4-3.61a6.31,6.31,0,0,0-5.86,3.07,14.29,14.29,0,0,0-1.83,7.43,12.38,12.38,0,0,0,1.83,7,6.45,6.45,0,0,0,5.81,2.79C920.26,306.27,922.25,305.16,923.34,303Z"/><path class="cls-1" d="M228.38,343.67a10,10,0,0,1,4,3.38,11.78,11.78,0,0,1,1.76,4.62,30.16,30.16,0,0,1,.39,5.76H215.34a11.17,11.17,0,0,0,1.88,6.38,6.29,6.29,0,0,0,5.45,2.41,7.05,7.05,0,0,0,5.49-2.27,7.64,7.64,0,0,0,1.66-3.05h4.32a9.06,9.06,0,0,1-1.13,3.21,11.78,11.78,0,0,1-2.16,2.89,10.33,10.33,0,0,1-5,2.64,15.07,15.07,0,0,1-3.59.39,11,11,0,0,1-8.27-3.56q-3.41-3.54-3.4-9.94a15,15,0,0,1,3.42-10.23,11.28,11.28,0,0,1,8.93-3.93A11.93,11.93,0,0,1,228.38,343.67ZM230,353.94a11.42,11.42,0,0,0-1.24-4.57q-1.81-3.17-6-3.17a6.71,6.71,0,0,0-5.08,2.18,8.3,8.3,0,0,0-2.18,5.56Z"/><path class="cls-1" d="M242.25,333.23h4.47v5h-4.47Zm0,9.84h4.47v26h-4.47Z"/><path class="cls-1" d="M260.11,343v17.36a7.35,7.35,0,0,0,.63,3.27q1.17,2.34,4.37,2.34a6.17,6.17,0,0,0,6.25-4.1,16.27,16.27,0,0,0,.91-6V343h4.39V369.1h-4.15l.05-3.86a9,9,0,0,1-2.13,2.52,9.37,9.37,0,0,1-6.1,2.05q-5.59,0-7.62-3.74a11.13,11.13,0,0,1-1.09-5.35V343Z"/><path class="cls-1" d="M288.48,360.9a6.38,6.38,0,0,0,1.1,3.36q1.67,2.13,5.76,2.13a8.59,8.59,0,0,0,4.3-1.06,3.53,3.53,0,0,0,1.85-3.29,2.81,2.81,0,0,0-1.48-2.56,18.15,18.15,0,0,0-3.76-1.25l-3.5-.87a17.33,17.33,0,0,1-4.93-1.86,5.54,5.54,0,0,1-2.83-4.93,7.54,7.54,0,0,1,2.67-6,10.68,10.68,0,0,1,7.19-2.29q5.91,0,8.53,3.46a7.62,7.62,0,0,1,1.58,4.74h-4.15a5.09,5.09,0,0,0-1.05-2.71q-1.51-1.72-5.25-1.73a6.22,6.22,0,0,0-3.77,1,3,3,0,0,0-1.28,2.51,3.11,3.11,0,0,0,1.68,2.74A10,10,0,0,0,294,353.3l2.91.71a22.91,22.91,0,0,1,6.35,2.22,5.89,5.89,0,0,1,2.56,5.3,8.05,8.05,0,0,1-2.65,6q-2.64,2.54-8.07,2.54-5.83,0-8.26-2.65a10,10,0,0,1-2.6-6.55Z"/><path class="cls-1" d="M313.22,343h4.35v3.71a14.77,14.77,0,0,1,2.83-2.81,8.53,8.53,0,0,1,4.93-1.48,7.8,7.8,0,0,1,5,1.53,8.09,8.09,0,0,1,1.95,2.59,9.09,9.09,0,0,1,7.89-4.12c3.51,0,5.91,1.26,7.18,3.8a12.53,12.53,0,0,1,1,5.52V369.1h-4.57V350.93c0-1.74-.43-2.93-1.3-3.58a5.17,5.17,0,0,0-3.19-1,6.33,6.33,0,0,0-4.45,1.73q-1.87,1.74-1.87,5.79V369.1h-4.47V352a9,9,0,0,0-.63-3.88c-.67-1.22-1.92-1.83-3.74-1.83a6.43,6.43,0,0,0-4.53,1.93c-1.36,1.29-2,3.61-2,7V369.1h-4.39Z"/><path class="cls-1" d="M376.31,345.56q3.49,3.38,3.49,9.92a17,17,0,0,1-3.07,10.44q-3.08,4.14-9.55,4.13a10.79,10.79,0,0,1-8.57-3.65q-3.17-3.64-3.17-9.8c0-4.4,1.11-7.89,3.34-10.5a11.25,11.25,0,0,1,9-3.91A11.86,11.86,0,0,1,376.31,345.56ZM373.59,363a16.53,16.53,0,0,0,1.62-7.36,13.14,13.14,0,0,0-1.17-6q-1.86-3.61-6.4-3.61a6.29,6.29,0,0,0-5.85,3.07,14.19,14.19,0,0,0-1.83,7.43,12.3,12.3,0,0,0,1.83,7,6.43,6.43,0,0,0,5.81,2.79C370.51,366.27,372.51,365.16,373.59,363Z"/><path class="cls-1" d="M401.81,343.76a12,12,0,0,1,2.66,2.56V333.11h4.22v36h-3.95v-3.64A9.5,9.5,0,0,1,401.1,369a10.36,10.36,0,0,1-4.81,1.08,9.75,9.75,0,0,1-7.57-3.68q-3.2-3.68-3.2-9.78a16.88,16.88,0,0,1,2.92-9.9,9.54,9.54,0,0,1,8.34-4.18A9.28,9.28,0,0,1,401.81,343.76Zm-9.87,19.6a6.25,6.25,0,0,0,5.72,2.83,6,6,0,0,0,5-2.62q2-2.62,2-7.53c0-3.31-.68-5.75-2-7.34a6.31,6.31,0,0,0-5-2.38,6.63,6.63,0,0,0-5.39,2.54q-2.06,2.53-2.06,7.47A12.94,12.94,0,0,0,391.94,363.36Z"/><path class="cls-1" d="M434.66,335.65h4.44V343h4.17v3.59H439.1v17.07a1.85,1.85,0,0,0,.93,1.83,3.92,3.92,0,0,0,1.71.27l.68,0c.24,0,.53,0,.85-.06v3.47a9.92,9.92,0,0,1-1.57.32,16.36,16.36,0,0,1-1.77.09c-2.05,0-3.44-.52-4.18-1.57a7,7,0,0,1-1.09-4.09V346.54h-3.54V343h3.54Z"/><path class="cls-1" d="M466.3,343.67a10,10,0,0,1,4,3.38,11.63,11.63,0,0,1,1.76,4.62,30.16,30.16,0,0,1,.39,5.76H453.27a11.1,11.1,0,0,0,1.88,6.38,6.27,6.27,0,0,0,5.44,2.41,7,7,0,0,0,5.49-2.27,7.64,7.64,0,0,0,1.66-3.05h4.32a9.06,9.06,0,0,1-1.13,3.21,11.3,11.3,0,0,1-2.16,2.89,10.33,10.33,0,0,1-5,2.64,15.07,15.07,0,0,1-3.59.39,11,11,0,0,1-8.27-3.56q-3.4-3.54-3.4-9.94A15,15,0,0,1,452,346.3a11.29,11.29,0,0,1,8.94-3.93A11.92,11.92,0,0,1,466.3,343.67Zm1.61,10.27a11.42,11.42,0,0,0-1.24-4.57q-1.82-3.17-6-3.17a6.71,6.71,0,0,0-5.08,2.18,8.25,8.25,0,0,0-2.17,5.56Z"/><path class="cls-1" d="M480.18,343h4.34v3.71a15.06,15.06,0,0,1,2.83-2.81,8.56,8.56,0,0,1,4.94-1.48,7.77,7.77,0,0,1,5,1.53,8.1,8.1,0,0,1,2,2.59,9.37,9.37,0,0,1,3.44-3.11,9.55,9.55,0,0,1,4.44-1c3.52,0,5.91,1.26,7.18,3.8a12.38,12.38,0,0,1,1,5.52V369.1h-4.57V350.93c0-1.74-.43-2.93-1.3-3.58a5.22,5.22,0,0,0-3.19-1,6.36,6.36,0,0,0-4.46,1.73q-1.86,1.74-1.86,5.79V369.1h-4.47V352a8.78,8.78,0,0,0-.64-3.88c-.66-1.22-1.91-1.83-3.73-1.83a6.43,6.43,0,0,0-4.53,1.93c-1.36,1.29-2,3.61-2,7V369.1h-4.39Z"/><path class="cls-1" d="M523.83,343.07h4.28v3.47a10.67,10.67,0,0,1,2.88-2.76,9.23,9.23,0,0,1,5.22-1.46,9.84,9.84,0,0,1,7.55,3.4q3.09,3.4,3.1,9.73,0,8.55-4.47,12.21A10.14,10.14,0,0,1,535.8,370a8.91,8.91,0,0,1-5-1.3,11.18,11.18,0,0,1-2.61-2.51v13.35h-4.4Zm16.5,20.5q2-2.58,2-7.7a14.36,14.36,0,0,0-.91-5.37,6.23,6.23,0,0,0-6.25-4.33c-3,0-5.13,1.53-6.25,4.57a18.14,18.14,0,0,0-.9,6.2,13.15,13.15,0,0,0,.9,5.15,6.65,6.65,0,0,0,11.37,1.48Z"/><path class="cls-1" d="M573.43,345.56q3.48,3.38,3.49,9.92a17,17,0,0,1-3.08,10.44q-3.08,4.14-9.55,4.13a10.77,10.77,0,0,1-8.56-3.65q-3.18-3.64-3.18-9.8c0-4.4,1.12-7.89,3.35-10.5a11.23,11.23,0,0,1,9-3.91A11.88,11.88,0,0,1,573.43,345.56ZM570.7,363a16.4,16.4,0,0,0,1.63-7.36,13.14,13.14,0,0,0-1.17-6q-1.86-3.61-6.4-3.61a6.3,6.3,0,0,0-5.86,3.07,14.29,14.29,0,0,0-1.83,7.43,12.38,12.38,0,0,0,1.83,7,6.45,6.45,0,0,0,5.81,2.79C567.62,366.27,569.62,365.16,570.7,363Z"/><path class="cls-1" d="M584.61,343h4.18v4.52a10,10,0,0,1,2.51-3.21,6.55,6.55,0,0,1,4.62-1.89,3.69,3.69,0,0,1,.41,0l1,.1v4.64a5.16,5.16,0,0,0-.72-.1q-.33,0-.72,0a6.29,6.29,0,0,0-5.1,2.14,7.43,7.43,0,0,0-1.78,4.92v15h-4.4Z"/><path class="cls-1" d="M619.73,333.23h4.47v5h-4.47Zm0,9.84h4.47v26h-4.47Z"/><path class="cls-1" d="M633.19,343h4.18v3.71a11.47,11.47,0,0,1,3.93-3.29,10.42,10.42,0,0,1,4.61-1q5.57,0,7.52,3.88a13.7,13.7,0,0,1,1.08,6.08V369.1H650V352.62a9,9,0,0,0-.71-3.86,4.29,4.29,0,0,0-4.25-2.44,8.69,8.69,0,0,0-2.56.32,6.61,6.61,0,0,0-3.18,2.15,6.45,6.45,0,0,0-1.42,2.67,17.94,17.94,0,0,0-.33,3.94v13.7h-4.4Z"/><path class="cls-1" d="M680.62,344.34c1.85,1.44,3,3.9,3.34,7.4h-4.28a7.9,7.9,0,0,0-1.78-4,5.66,5.66,0,0,0-4.47-1.6,6.16,6.16,0,0,0-6,4.11,16.28,16.28,0,0,0-1.17,6.56,12.32,12.32,0,0,0,1.66,6.62,6.41,6.41,0,0,0,9.55,1,9.09,9.09,0,0,0,2.21-4.57H684c-.49,3.46-1.71,6-3.67,7.6a11.43,11.43,0,0,1-7.49,2.41,10,10,0,0,1-8.18-3.75,14.31,14.31,0,0,1-3-9.36q0-6.88,3.34-10.72a10.8,10.8,0,0,1,8.52-3.84A11.39,11.39,0,0,1,680.62,344.34Z"/><path class="cls-1" d="M690.7,333.23h4.47v5H690.7Zm0,9.84h4.47v26H690.7Z"/><path class="cls-1" d="M718.59,343.76a12,12,0,0,1,2.66,2.56V333.11h4.22v36h-4v-3.64a9.5,9.5,0,0,1-3.64,3.49,10.36,10.36,0,0,1-4.81,1.08,9.75,9.75,0,0,1-7.57-3.68q-3.19-3.68-3.2-9.78a17,17,0,0,1,2.92-9.9,9.55,9.55,0,0,1,8.34-4.18A9.28,9.28,0,0,1,718.59,343.76Zm-9.87,19.6a6.25,6.25,0,0,0,5.72,2.83,6,6,0,0,0,5-2.62q2-2.62,2-7.53c0-3.31-.68-5.75-2-7.34a6.31,6.31,0,0,0-5-2.38,6.63,6.63,0,0,0-5.39,2.54q-2.06,2.53-2.06,7.47A13,13,0,0,0,708.72,363.36Z"/><path class="cls-1" d="M734.32,333.23h4.46v5h-4.46Zm0,9.84h4.46v26h-4.46Z"/><path class="cls-1" d="M762.2,343.76a11.8,11.8,0,0,1,2.66,2.56V333.11h4.23v36h-4v-3.64A9.48,9.48,0,0,1,761.5,369a10.39,10.39,0,0,1-4.81,1.08,9.73,9.73,0,0,1-7.57-3.68q-3.21-3.68-3.2-9.78a16.88,16.88,0,0,1,2.92-9.9,9.53,9.53,0,0,1,8.33-4.18A9.25,9.25,0,0,1,762.2,343.76Zm-9.86,19.6a6.24,6.24,0,0,0,5.71,2.83,6,6,0,0,0,5-2.62q2-2.62,2-7.53c0-3.31-.68-5.75-2-7.34a6.31,6.31,0,0,0-5-2.38,6.62,6.62,0,0,0-5.38,2.54q-2.05,2.53-2.06,7.47A12.94,12.94,0,0,0,752.34,363.36Z"/><path class="cls-1" d="M782.33,343v17.36a7.35,7.35,0,0,0,.63,3.27q1.17,2.34,4.37,2.34a6.17,6.17,0,0,0,6.25-4.1,16.29,16.29,0,0,0,.9-6V343h4.4V369.1h-4.15l0-3.86a9,9,0,0,1-2.13,2.52,9.37,9.37,0,0,1-6.1,2.05q-5.59,0-7.62-3.74a11.13,11.13,0,0,1-1.1-5.35V343Z"/><path class="cls-1" d="M808.09,343h4.17v3.71a11.59,11.59,0,0,1,3.94-3.29,10.42,10.42,0,0,1,4.61-1q5.57,0,7.52,3.88a13.86,13.86,0,0,1,1.07,6.08V369.1h-4.46V352.62a9,9,0,0,0-.71-3.86,4.29,4.29,0,0,0-4.25-2.44,8.64,8.64,0,0,0-2.56.32,6.56,6.56,0,0,0-3.18,2.15,6.47,6.47,0,0,0-1.43,2.67,17.94,17.94,0,0,0-.33,3.94v13.7h-4.39Z"/><path class="cls-1" d="M839.13,335.65h4.44V343h4.17v3.59h-4.17v17.07a1.85,1.85,0,0,0,.93,1.83,3.92,3.92,0,0,0,1.71.27l.68,0c.24,0,.53,0,.85-.06v3.47a9.92,9.92,0,0,1-1.57.32,16.36,16.36,0,0,1-1.77.09c-2,0-3.44-.52-4.18-1.57a7,7,0,0,1-1.09-4.09V346.54h-3.54V343h3.54Z"/><path class="cls-1" d="M875.12,343v17.36a7.35,7.35,0,0,0,.64,3.27q1.17,2.34,4.37,2.34a6.17,6.17,0,0,0,6.25-4.1,16.29,16.29,0,0,0,.9-6V343h4.4V369.1h-4.15l.05-3.86a9,9,0,0,1-2.13,2.52,9.37,9.37,0,0,1-6.1,2.05q-5.6,0-7.62-3.74a11.13,11.13,0,0,1-1.1-5.35V343Z"/><path class="cls-1" d="M901.77,335.65h4.44V343h4.17v3.59h-4.17v17.07a1.85,1.85,0,0,0,.93,1.83,3.92,3.92,0,0,0,1.71.27l.68,0c.25,0,.53,0,.85-.06v3.47a9.7,9.7,0,0,1-1.57.32,16.09,16.09,0,0,1-1.77.09c-2,0-3.44-.52-4.17-1.57a6.94,6.94,0,0,1-1.1-4.09V346.54h-3.54V343h3.54Z"/><path class="cls-1" d="M156.28,393.23h4.4V429.1h-4.4Z"/><path class="cls-1" d="M183.63,413.25a2.38,2.38,0,0,0,2-1.27,3.93,3.93,0,0,0,.29-1.68,3.56,3.56,0,0,0-1.6-3.26,8.6,8.6,0,0,0-4.57-1q-3.45,0-4.89,1.85a6.17,6.17,0,0,0-1,3.05h-4.1q.12-4.83,3.14-6.72a12.88,12.88,0,0,1,7-1.89,14.26,14.26,0,0,1,7.5,1.75,6,6,0,0,1,2.85,5.47v15.07a2,2,0,0,0,.28,1.1,1.39,1.39,0,0,0,1.19.41,5.52,5.52,0,0,0,.66,0c.24,0,.5-.06.78-.11v3.25a12,12,0,0,1-1.56.37,11.4,11.4,0,0,1-1.47.07,3.61,3.61,0,0,1-3.29-1.61,6.27,6.27,0,0,1-.76-2.42,11.19,11.19,0,0,1-3.86,3.05,11.81,11.81,0,0,1-5.54,1.3,8.22,8.22,0,0,1-5.94-2.21,7.35,7.35,0,0,1-2.31-5.53,7.09,7.09,0,0,1,2.27-5.64,10.76,10.76,0,0,1,6-2.47Zm-9.25,11.89a5.13,5.13,0,0,0,3.3,1.1,10.11,10.11,0,0,0,4.49-1.07,6,6,0,0,0,3.66-5.84v-3.54a7.66,7.66,0,0,1-2.08.86,17.38,17.38,0,0,1-2.49.49l-2.66.34a10.11,10.11,0,0,0-3.59,1,3.88,3.88,0,0,0-2,3.66A3.6,3.6,0,0,0,174.38,425.14Z"/><path class="cls-1" d="M199.43,393.11h4.28v13a9.6,9.6,0,0,1,7.79-3.85,10.22,10.22,0,0,1,7.92,3.35q3,3.36,3,9.9a17,17,0,0,1-3,10.31,9.74,9.74,0,0,1-8.32,4.1,8.53,8.53,0,0,1-5-1.44,12.18,12.18,0,0,1-2.61-2.74v3.35h-4.06Zm16.77,30.1a13.91,13.91,0,0,0,1.76-7.47,12.23,12.23,0,0,0-1.76-6.83A5.84,5.84,0,0,0,211,406.2a7.28,7.28,0,0,0-5.26,2.22q-2.26,2.22-2.26,7.32a16.19,16.19,0,0,0,.93,6,6.41,6.41,0,0,0,6.47,4.32A5.89,5.89,0,0,0,216.2,423.21Z"/><path class="cls-1" d="M249,405.56q3.48,3.38,3.49,9.92a17,17,0,0,1-3.08,10.44q-3.08,4.14-9.55,4.13a10.77,10.77,0,0,1-8.56-3.65q-3.18-3.64-3.18-9.8c0-4.4,1.12-7.89,3.35-10.5a11.23,11.23,0,0,1,9-3.91A11.88,11.88,0,0,1,249,405.56ZM246.3,423a16.53,16.53,0,0,0,1.63-7.36,13,13,0,0,0-1.18-6q-1.84-3.61-6.39-3.61a6.3,6.3,0,0,0-5.86,3.07,14.29,14.29,0,0,0-1.83,7.43,12.38,12.38,0,0,0,1.83,7,6.45,6.45,0,0,0,5.81,2.79C243.22,426.27,245.22,425.16,246.3,423Z"/><path class="cls-1" d="M260.21,403h4.18v4.52a10,10,0,0,1,2.51-3.21,6.55,6.55,0,0,1,4.62-1.89,3.69,3.69,0,0,1,.41,0l1,.1v4.64a5.16,5.16,0,0,0-.72-.1q-.33,0-.72,0a6.29,6.29,0,0,0-5.1,2.14,7.43,7.43,0,0,0-1.78,4.92v15h-4.4Z"/><path class="cls-1" d="M295.38,403.67a10,10,0,0,1,4,3.38,11.77,11.77,0,0,1,1.75,4.62,30.16,30.16,0,0,1,.39,5.76H282.34a11.17,11.17,0,0,0,1.88,6.38,6.28,6.28,0,0,0,5.44,2.41,7.06,7.06,0,0,0,5.5-2.27,7.76,7.76,0,0,0,1.66-3.05h4.32a9.3,9.3,0,0,1-1.14,3.21,11.3,11.3,0,0,1-2.16,2.89,10.25,10.25,0,0,1-4.95,2.64,15.13,15.13,0,0,1-3.59.39,11,11,0,0,1-8.28-3.56q-3.39-3.54-3.39-9.94A15.07,15.07,0,0,1,281,406.3a11.29,11.29,0,0,1,8.94-3.93A12,12,0,0,1,295.38,403.67ZM297,413.94a11.41,11.41,0,0,0-1.25-4.57q-1.8-3.17-6-3.17a6.71,6.71,0,0,0-5.08,2.18,8.29,8.29,0,0,0-2.17,5.56Z"/><path class="cls-1" d="M341.78,403.67a9.94,9.94,0,0,1,4,3.38,11.63,11.63,0,0,1,1.76,4.62,30.16,30.16,0,0,1,.39,5.76H328.74a11.17,11.17,0,0,0,1.88,6.38,6.27,6.27,0,0,0,5.44,2.41,7.06,7.06,0,0,0,5.5-2.27,7.76,7.76,0,0,0,1.66-3.05h4.32a9.3,9.3,0,0,1-1.14,3.21,11.3,11.3,0,0,1-2.16,2.89,10.3,10.3,0,0,1-4.95,2.64,15.13,15.13,0,0,1-3.59.39,11,11,0,0,1-8.28-3.56q-3.39-3.54-3.39-9.94a15.07,15.07,0,0,1,3.41-10.23,11.29,11.29,0,0,1,8.94-3.93A12,12,0,0,1,341.78,403.67Zm1.61,10.27a11.41,11.41,0,0,0-1.25-4.57q-1.8-3.17-6-3.17a6.71,6.71,0,0,0-5.08,2.18,8.29,8.29,0,0,0-2.17,5.56Z"/><path class="cls-1" d="M356.53,395.65H361V403h4.18v3.59H361v17.07a1.85,1.85,0,0,0,.93,1.83,3.92,3.92,0,0,0,1.71.27l.68,0c.25,0,.53,0,.86-.06v3.47a10,10,0,0,1-1.58.32,16.09,16.09,0,0,1-1.77.09c-2.05,0-3.44-.52-4.17-1.57a6.94,6.94,0,0,1-1.1-4.09V406.54H353V403h3.54Z"/><path class="cls-1" d="M402.56,403.76a11.8,11.8,0,0,1,2.66,2.56V393.11h4.23v36h-4v-3.64a9.5,9.5,0,0,1-3.64,3.49A10.36,10.36,0,0,1,397,430a9.76,9.76,0,0,1-7.57-3.68q-3.2-3.68-3.19-9.78a17,17,0,0,1,2.91-9.9,9.56,9.56,0,0,1,8.34-4.18A9.28,9.28,0,0,1,402.56,403.76Zm-9.86,19.6a6.23,6.23,0,0,0,5.71,2.83,6,6,0,0,0,5-2.62q2-2.62,2-7.53c0-3.31-.67-5.75-2-7.34a6.31,6.31,0,0,0-5-2.38,6.61,6.61,0,0,0-5.38,2.54c-1.38,1.69-2.06,4.18-2.06,7.47A12.94,12.94,0,0,0,392.7,423.36Z"/><path class="cls-1" d="M437.38,405.56q3.5,3.38,3.49,9.92a17,17,0,0,1-3.07,10.44q-3.07,4.14-9.55,4.13a10.79,10.79,0,0,1-8.57-3.65q-3.18-3.64-3.17-9.8c0-4.4,1.11-7.89,3.34-10.5a11.25,11.25,0,0,1,9-3.91A11.86,11.86,0,0,1,437.38,405.56ZM434.66,423a16.53,16.53,0,0,0,1.62-7.36,13.14,13.14,0,0,0-1.17-6q-1.86-3.61-6.4-3.61a6.29,6.29,0,0,0-5.85,3.07,14.19,14.19,0,0,0-1.84,7.43,12.3,12.3,0,0,0,1.84,7,6.43,6.43,0,0,0,5.81,2.79C431.58,426.27,433.58,425.16,434.66,423Z"/><path class="cls-1" d="M448.57,393.23H453V429.1h-4.39Z"/><path class="cls-1" d="M481,405.56q3.48,3.38,3.49,9.92a17,17,0,0,1-3.08,10.44q-3.07,4.14-9.54,4.13a10.78,10.78,0,0,1-8.57-3.65q-3.18-3.64-3.18-9.8c0-4.4,1.12-7.89,3.35-10.5a11.23,11.23,0,0,1,9-3.91A11.88,11.88,0,0,1,481,405.56ZM478.28,423a16.53,16.53,0,0,0,1.62-7.36,13.14,13.14,0,0,0-1.17-6q-1.86-3.61-6.4-3.61a6.3,6.3,0,0,0-5.86,3.07,14.29,14.29,0,0,0-1.83,7.43,12.38,12.38,0,0,0,1.83,7,6.45,6.45,0,0,0,5.81,2.79C475.19,426.27,477.19,425.16,478.28,423Z"/><path class="cls-1" d="M492.19,403h4.17v4.52a9.88,9.88,0,0,1,2.52-3.21,6.51,6.51,0,0,1,4.61-1.89,3.69,3.69,0,0,1,.41,0l1,.1v4.64a5.16,5.16,0,0,0-.72-.1q-.33,0-.72,0a6.29,6.29,0,0,0-5.1,2.14,7.43,7.43,0,0,0-1.78,4.92v15h-4.39Z"/><path class="cls-1" d="M527.35,403.67a10,10,0,0,1,4,3.38,11.62,11.62,0,0,1,1.75,4.62,29.16,29.16,0,0,1,.4,5.76H514.31a11.17,11.17,0,0,0,1.88,6.38,6.28,6.28,0,0,0,5.44,2.41,7.06,7.06,0,0,0,5.5-2.27,7.76,7.76,0,0,0,1.66-3.05h4.32a8.9,8.9,0,0,1-1.14,3.21,11.3,11.3,0,0,1-2.16,2.89,10.25,10.25,0,0,1-4.95,2.64,15.13,15.13,0,0,1-3.59.39,11,11,0,0,1-8.28-3.56q-3.39-3.54-3.39-9.94A15,15,0,0,1,513,406.3a11.25,11.25,0,0,1,8.93-3.93A11.93,11.93,0,0,1,527.35,403.67ZM529,413.94a11.25,11.25,0,0,0-1.25-4.57q-1.8-3.17-6-3.17a6.69,6.69,0,0,0-5.07,2.18,8.25,8.25,0,0,0-2.18,5.56Z"/><path class="cls-1" d="M557.46,403h4.35v3.71a14.77,14.77,0,0,1,2.83-2.81,8.53,8.53,0,0,1,4.93-1.48,7.78,7.78,0,0,1,5,1.53,8,8,0,0,1,1.95,2.59,9.12,9.12,0,0,1,7.89-4.12c3.52,0,5.91,1.26,7.18,3.8a12.53,12.53,0,0,1,1,5.52V429.1h-4.56V410.93c0-1.74-.44-2.93-1.31-3.58a5.17,5.17,0,0,0-3.18-1,6.36,6.36,0,0,0-4.46,1.73q-1.87,1.74-1.87,5.79V429.1h-4.47V412a9,9,0,0,0-.63-3.88c-.67-1.22-1.91-1.83-3.74-1.83a6.39,6.39,0,0,0-4.52,1.93c-1.36,1.29-2,3.61-2,7V429.1h-4.4Z"/><path class="cls-1" d="M615.48,413.25a2.37,2.37,0,0,0,2-1.27,3.77,3.77,0,0,0,.3-1.68,3.59,3.59,0,0,0-1.6-3.26,8.67,8.67,0,0,0-4.58-1c-2.3,0-3.92.62-4.88,1.85a6.07,6.07,0,0,0-1,3.05h-4.11c.09-3.22,1.13-5.46,3.14-6.72a12.89,12.89,0,0,1,7-1.89,14.25,14.25,0,0,1,7.49,1.75,6,6,0,0,1,2.86,5.47v15.07a1.93,1.93,0,0,0,.28,1.1,1.37,1.37,0,0,0,1.18.41,5.29,5.29,0,0,0,.66,0A7.69,7.69,0,0,0,625,426v3.25a11.59,11.59,0,0,1-1.56.37,11.33,11.33,0,0,1-1.46.07,3.62,3.62,0,0,1-3.3-1.61,6.27,6.27,0,0,1-.76-2.42,11.15,11.15,0,0,1-3.85,3.05,11.88,11.88,0,0,1-5.55,1.3,8.25,8.25,0,0,1-5.94-2.21,7.35,7.35,0,0,1-2.31-5.53,7.12,7.12,0,0,1,2.27-5.64,10.79,10.79,0,0,1,6-2.47Zm-9.26,11.89a5.13,5.13,0,0,0,3.3,1.1,10.08,10.08,0,0,0,4.49-1.07,6,6,0,0,0,3.66-5.84v-3.54a7.45,7.45,0,0,1-2.07.86,17.93,17.93,0,0,1-2.49.49l-2.66.34a10,10,0,0,0-3.59,1,3.89,3.89,0,0,0-2,3.66A3.63,3.63,0,0,0,606.22,425.14Z"/><path class="cls-1" d="M646.22,404a12,12,0,0,1,2.54,2.49V403.2h4V427a17.67,17.67,0,0,1-1.46,7.87q-2.75,5.31-10.33,5.32a12.65,12.65,0,0,1-7.1-1.89,7.39,7.39,0,0,1-3.23-5.92h4.47a5,5,0,0,0,1.27,2.71,6.51,6.51,0,0,0,4.69,1.46q5.05,0,6.61-3.56.93-2.1.86-7.5a8.58,8.58,0,0,1-3.18,3,11.36,11.36,0,0,1-12.34-2q-3.18-3-3.18-10,0-6.57,3.21-10.26a9.94,9.94,0,0,1,7.75-3.68A9.52,9.52,0,0,1,646.22,404Zm.54,4.71a6.44,6.44,0,0,0-5.11-2.34,6.3,6.3,0,0,0-6.34,4.34,17.12,17.12,0,0,0-.91,6.08q0,4.43,1.8,6.73a5.78,5.78,0,0,0,4.82,2.31,6.78,6.78,0,0,0,6.67-4.28,13.86,13.86,0,0,0,1.07-5.63Q648.76,411.06,646.76,408.71Z"/><path class="cls-1" d="M661.78,403H666v3.71a11.66,11.66,0,0,1,3.93-3.29,10.47,10.47,0,0,1,4.62-1c3.71,0,6.21,1.29,7.52,3.88a13.86,13.86,0,0,1,1.07,6.08V429.1h-4.47V412.62a9,9,0,0,0-.7-3.86,4.3,4.3,0,0,0-4.25-2.44,8.76,8.76,0,0,0-2.57.32,6.58,6.58,0,0,0-3.17,2.15,6.47,6.47,0,0,0-1.43,2.67,17.94,17.94,0,0,0-.33,3.94v13.7h-4.39Z"/><path class="cls-1" d="M706,413.25a2.4,2.4,0,0,0,2-1.27,3.93,3.93,0,0,0,.29-1.68,3.56,3.56,0,0,0-1.6-3.26,8.64,8.64,0,0,0-4.58-1q-3.44,0-4.88,1.85a6.07,6.07,0,0,0-1.05,3.05h-4.1q.12-4.83,3.14-6.72a12.88,12.88,0,0,1,7-1.89,14.28,14.28,0,0,1,7.5,1.75,6,6,0,0,1,2.85,5.47v15.07a1.93,1.93,0,0,0,.28,1.1,1.38,1.38,0,0,0,1.19.41,5.52,5.52,0,0,0,.66,0c.24,0,.5-.06.78-.11v3.25a12,12,0,0,1-1.57.37,11.13,11.13,0,0,1-1.46.07,3.64,3.64,0,0,1-3.3-1.61,6.28,6.28,0,0,1-.75-2.42,11.19,11.19,0,0,1-3.86,3.05A11.84,11.84,0,0,1,699,430a8.26,8.26,0,0,1-6-2.21,7.35,7.35,0,0,1-2.31-5.53A7.1,7.1,0,0,1,693,416.6a10.73,10.73,0,0,1,6-2.47Zm-9.25,11.89a5.09,5.09,0,0,0,3.29,1.1,10,10,0,0,0,4.49-1.07,6,6,0,0,0,3.67-5.84v-3.54a7.66,7.66,0,0,1-2.08.86,17.93,17.93,0,0,1-2.49.49l-2.66.34a10.11,10.11,0,0,0-3.59,1,3.89,3.89,0,0,0-2,3.66A3.61,3.61,0,0,0,696.7,425.14Z"/><path class="cls-1" d="M752.35,413.25a2.4,2.4,0,0,0,2-1.27,3.93,3.93,0,0,0,.29-1.68,3.59,3.59,0,0,0-1.6-3.26,8.64,8.64,0,0,0-4.58-1q-3.43,0-4.88,1.85a6.07,6.07,0,0,0-1.05,3.05h-4.1q.12-4.83,3.13-6.72a12.92,12.92,0,0,1,7-1.89,14.22,14.22,0,0,1,7.49,1.75,6,6,0,0,1,2.86,5.47v15.07a1.93,1.93,0,0,0,.28,1.1,1.38,1.38,0,0,0,1.19.41,5.25,5.25,0,0,0,.65,0c.25,0,.51-.06.79-.11v3.25a12,12,0,0,1-1.57.37,11.23,11.23,0,0,1-1.46.07,3.63,3.63,0,0,1-3.3-1.61,6.11,6.11,0,0,1-.75-2.42,11.29,11.29,0,0,1-3.86,3.05,11.87,11.87,0,0,1-5.54,1.3,8.26,8.26,0,0,1-6-2.21,7.35,7.35,0,0,1-2.31-5.53,7.12,7.12,0,0,1,2.27-5.64,10.79,10.79,0,0,1,6-2.47Zm-9.25,11.89a5.09,5.09,0,0,0,3.29,1.1,10,10,0,0,0,4.49-1.07,6,6,0,0,0,3.67-5.84v-3.54a7.66,7.66,0,0,1-2.08.86,17.93,17.93,0,0,1-2.49.49l-2.66.34a10,10,0,0,0-3.59,1,3.89,3.89,0,0,0-2,3.66A3.61,3.61,0,0,0,743.1,425.14Z"/><path class="cls-1" d="M768.62,393.23H773V429.1h-4.39Z"/><path class="cls-1" d="M782,393.23h4.47v5H782Zm0,9.84h4.47v26H782Z"/><path class="cls-1" d="M810.21,404a9.84,9.84,0,0,1,2.34,2.59V403h4.17v36.57H812.3V426.1a7.82,7.82,0,0,1-3,2.79,10.17,10.17,0,0,1-4.84,1,10.32,10.32,0,0,1-7.47-3.27q-3.3-3.27-3.3-10a16.46,16.46,0,0,1,3.09-10.31,9.63,9.63,0,0,1,8-4A9,9,0,0,1,810.21,404Zm-11,18.07a6.05,6.05,0,0,0,6,4.07,6.32,6.32,0,0,0,6.33-4.29,16.53,16.53,0,0,0,1-6.06,13.46,13.46,0,0,0-1-5.66,6.34,6.34,0,0,0-6.27-3.88,6.13,6.13,0,0,0-4.9,2.48q-2,2.47-2,7.65A15,15,0,0,0,799.19,422.07Z"/><path class="cls-1" d="M830,403v17.36a7.21,7.21,0,0,0,.64,3.27c.78,1.56,2.23,2.34,4.37,2.34a6.17,6.17,0,0,0,6.25-4.1,16.29,16.29,0,0,0,.9-6V403h4.39V429.1h-4.15l0-3.86a9.12,9.12,0,0,1-2.12,2.52,9.39,9.39,0,0,1-6.1,2.05q-5.6,0-7.62-3.74a11.13,11.13,0,0,1-1.1-5.35V403Z"/><path class="cls-1" d="M869.74,413.25a2.37,2.37,0,0,0,2-1.27,3.77,3.77,0,0,0,.3-1.68,3.59,3.59,0,0,0-1.6-3.26,8.64,8.64,0,0,0-4.58-1q-3.43,0-4.88,1.85a6.07,6.07,0,0,0-1,3.05h-4.1q.12-4.83,3.13-6.72a12.92,12.92,0,0,1,7-1.89,14.25,14.25,0,0,1,7.49,1.75,6,6,0,0,1,2.86,5.47v15.07a1.93,1.93,0,0,0,.28,1.1,1.37,1.37,0,0,0,1.18.41,5.29,5.29,0,0,0,.66,0c.25,0,.51-.06.79-.11v3.25a12,12,0,0,1-1.57.37,11.23,11.23,0,0,1-1.46.07,3.63,3.63,0,0,1-3.3-1.61,6.11,6.11,0,0,1-.75-2.42,11.29,11.29,0,0,1-3.86,3.05,11.87,11.87,0,0,1-5.54,1.3,8.26,8.26,0,0,1-6-2.21,7.35,7.35,0,0,1-2.31-5.53,7.12,7.12,0,0,1,2.27-5.64,10.79,10.79,0,0,1,6-2.47Zm-9.25,11.89a5.09,5.09,0,0,0,3.29,1.1,10.08,10.08,0,0,0,4.49-1.07,6.06,6.06,0,0,0,3.67-5.84v-3.54a7.66,7.66,0,0,1-2.08.86,17.93,17.93,0,0,1-2.49.49l-2.66.34a10,10,0,0,0-3.59,1,3.89,3.89,0,0,0-2,3.66A3.61,3.61,0,0,0,860.49,425.14Z"/><path class="cls-1" d="M886.93,423.78H892v5.32h-5.11Z"/><path class="cls-1" d="M924.22,393.23V415.4a13,13,0,0,0,1.47,6.5q2.17,3.9,7.32,3.9,6.18,0,8.4-4.22a13.42,13.42,0,0,0,1.2-6.18V393.23h4.93v20.15q0,6.62-1.78,10.18-3.27,6.49-12.36,6.49t-12.32-6.49q-1.79-3.57-1.79-10.18V393.23Z"/><path class="cls-1" d="M957.7,395.65h4.45V403h4.17v3.59h-4.17v17.07a1.86,1.86,0,0,0,.92,1.83,4,4,0,0,0,1.71.27l.69,0c.24,0,.53,0,.85-.06v3.47a9.92,9.92,0,0,1-1.57.32,16.36,16.36,0,0,1-1.77.09c-2.05,0-3.45-.52-4.18-1.57a7,7,0,0,1-1.1-4.09V406.54h-3.54V403h3.54Z"/><path class="cls-1" d="M179.05,463.67a9.9,9.9,0,0,1,4,3.38,11.63,11.63,0,0,1,1.76,4.62,30.16,30.16,0,0,1,.39,5.76H166a11.17,11.17,0,0,0,1.88,6.38,6.27,6.27,0,0,0,5.44,2.41,7,7,0,0,0,5.49-2.27,7.66,7.66,0,0,0,1.67-3.05h4.32a9.3,9.3,0,0,1-1.14,3.21,11.3,11.3,0,0,1-2.16,2.89,10.29,10.29,0,0,1-5,2.64A15,15,0,0,1,173,490a11,11,0,0,1-8.28-3.56q-3.39-3.54-3.39-9.94a15.07,15.07,0,0,1,3.41-10.23,11.29,11.29,0,0,1,8.94-3.93A11.92,11.92,0,0,1,179.05,463.67Zm1.62,10.27a11.41,11.41,0,0,0-1.25-4.57q-1.8-3.17-6-3.17a6.71,6.71,0,0,0-5.08,2.18,8.29,8.29,0,0,0-2.17,5.56Z"/><path class="cls-1" d="M192.93,463h4.17v3.71a11.66,11.66,0,0,1,3.93-3.29,10.5,10.5,0,0,1,4.62-1q5.57,0,7.52,3.88a13.86,13.86,0,0,1,1.07,6.08V489.1h-4.47V472.62a9,9,0,0,0-.7-3.86,4.29,4.29,0,0,0-4.25-2.44,8.76,8.76,0,0,0-2.57.32,6.58,6.58,0,0,0-3.17,2.15,6.47,6.47,0,0,0-1.43,2.67,17.94,17.94,0,0,0-.33,3.94v13.7h-4.39Z"/><path class="cls-1" d="M223.09,453.23h4.46v5h-4.46Zm0,9.84h4.46v26h-4.46Z"/><path class="cls-1" d="M236.54,463h4.35v3.71a15.06,15.06,0,0,1,2.83-2.81,8.53,8.53,0,0,1,4.93-1.48,7.78,7.78,0,0,1,5,1.53,8.1,8.1,0,0,1,2,2.59,9.37,9.37,0,0,1,3.44-3.11,9.55,9.55,0,0,1,4.44-1c3.52,0,5.91,1.26,7.18,3.8a12.53,12.53,0,0,1,1,5.52V489.1h-4.56V470.93c0-1.74-.44-2.93-1.31-3.58a5.17,5.17,0,0,0-3.18-1,6.36,6.36,0,0,0-4.46,1.73c-1.24,1.16-1.87,3.09-1.87,5.79V489.1h-4.46V472a8.92,8.92,0,0,0-.64-3.88c-.67-1.22-1.91-1.83-3.73-1.83a6.43,6.43,0,0,0-4.53,1.93c-1.36,1.29-2,3.61-2,7V489.1h-4.4Z"/><path class="cls-1" d="M310.8,473.25a2.4,2.4,0,0,0,2-1.27,3.93,3.93,0,0,0,.29-1.68,3.56,3.56,0,0,0-1.6-3.26,8.64,8.64,0,0,0-4.58-1q-3.44,0-4.88,1.85a6.07,6.07,0,0,0-1.05,3.05h-4.1c.08-3.22,1.13-5.46,3.13-6.72a12.92,12.92,0,0,1,7-1.89,14.28,14.28,0,0,1,7.5,1.75,6,6,0,0,1,2.85,5.47v15.07a1.93,1.93,0,0,0,.28,1.1,1.38,1.38,0,0,0,1.19.41,5.52,5.52,0,0,0,.66,0c.24,0,.5-.06.78-.11v3.25a12,12,0,0,1-1.57.37,11.13,11.13,0,0,1-1.46.07,3.64,3.64,0,0,1-3.3-1.61,6.28,6.28,0,0,1-.75-2.42,11.19,11.19,0,0,1-3.86,3.05,11.84,11.84,0,0,1-5.54,1.3,8.26,8.26,0,0,1-5.95-2.21,7.34,7.34,0,0,1-2.3-5.53,7.09,7.09,0,0,1,2.27-5.64,10.73,10.73,0,0,1,6-2.47Zm-9.25,11.89a5.09,5.09,0,0,0,3.29,1.1,10,10,0,0,0,4.49-1.07,6,6,0,0,0,3.67-5.84v-3.54a7.66,7.66,0,0,1-2.08.86,17.38,17.38,0,0,1-2.49.49l-2.66.34a10.11,10.11,0,0,0-3.59,1,3.88,3.88,0,0,0-2,3.66A3.6,3.6,0,0,0,301.55,485.14Z"/><path class="cls-1" d="M341.37,463.76a11.8,11.8,0,0,1,2.66,2.56V453.11h4.23v36h-4v-3.64a9.44,9.44,0,0,1-3.64,3.49,10.35,10.35,0,0,1-4.8,1.08,9.73,9.73,0,0,1-7.57-3.68q-3.21-3.68-3.2-9.78a16.88,16.88,0,0,1,2.92-9.9,9.53,9.53,0,0,1,8.33-4.18A9.25,9.25,0,0,1,341.37,463.76Zm-9.86,19.6a6.24,6.24,0,0,0,5.71,2.83,6,6,0,0,0,5-2.62q2-2.62,2-7.53c0-3.31-.68-5.75-2-7.34a6.31,6.31,0,0,0-5-2.38,6.62,6.62,0,0,0-5.38,2.54c-1.38,1.69-2.06,4.18-2.06,7.47A12.94,12.94,0,0,0,331.51,483.36Z"/><path class="cls-1" d="M373.34,463h4.35v3.71a14.77,14.77,0,0,1,2.83-2.81,8.53,8.53,0,0,1,4.93-1.48,7.78,7.78,0,0,1,5,1.53,8,8,0,0,1,1.95,2.59,9.12,9.12,0,0,1,7.89-4.12c3.52,0,5.91,1.26,7.18,3.8a12.53,12.53,0,0,1,1,5.52V489.1H404V470.93c0-1.74-.44-2.93-1.31-3.58a5.17,5.17,0,0,0-3.18-1A6.36,6.36,0,0,0,395,468.1c-1.24,1.16-1.87,3.09-1.87,5.79V489.1h-4.47V472a9,9,0,0,0-.63-3.88c-.67-1.22-1.91-1.83-3.74-1.83a6.39,6.39,0,0,0-4.52,1.93c-1.36,1.29-2,3.61-2,7V489.1h-4.4Z"/><path class="cls-1" d="M417.34,453.23h4.47v5h-4.47Zm0,9.84h4.47v26h-4.47Z"/><path class="cls-1" d="M430.8,463H435v3.71a11.47,11.47,0,0,1,3.93-3.29,10.42,10.42,0,0,1,4.61-1q5.57,0,7.52,3.88a13.7,13.7,0,0,1,1.08,6.08V489.1h-4.47V472.62a9,9,0,0,0-.71-3.86,4.29,4.29,0,0,0-4.25-2.44,8.64,8.64,0,0,0-2.56.32,6.61,6.61,0,0,0-3.18,2.15,6.45,6.45,0,0,0-1.42,2.67,17.94,17.94,0,0,0-.33,3.94v13.7h-4.4Z"/><path class="cls-1" d="M461,453.23h4.47v5H461Zm0,9.84h4.47v26H461Z"/><path class="cls-1" d="M474.42,463h4.34v3.71a14.78,14.78,0,0,1,2.84-2.81,8.5,8.5,0,0,1,4.93-1.48,7.8,7.8,0,0,1,5,1.53,8.23,8.23,0,0,1,1.95,2.59,9.45,9.45,0,0,1,3.44-3.11,9.56,9.56,0,0,1,4.45-1c3.51,0,5.9,1.26,7.17,3.8a12.38,12.38,0,0,1,1,5.52V489.1H505V470.93c0-1.74-.43-2.93-1.3-3.58a5.2,5.2,0,0,0-3.19-1,6.33,6.33,0,0,0-4.45,1.73q-1.87,1.74-1.87,5.79V489.1h-4.47V472a9,9,0,0,0-.63-3.88c-.67-1.22-1.92-1.83-3.74-1.83a6.43,6.43,0,0,0-4.53,1.93c-1.36,1.29-2,3.61-2,7V489.1h-4.39Z"/><path class="cls-1" d="M536.81,463l7,21.29,7.3-21.29h4.81L546,489.1h-4.69L531.71,463Z"/><path class="cls-1" d="M578.29,463.67a9.9,9.9,0,0,1,4,3.38,11.63,11.63,0,0,1,1.76,4.62,30.16,30.16,0,0,1,.39,5.76H565.26a11.1,11.1,0,0,0,1.88,6.38,6.27,6.27,0,0,0,5.44,2.41,7,7,0,0,0,5.49-2.27,7.52,7.52,0,0,0,1.66-3.05h4.33a9.3,9.3,0,0,1-1.14,3.21,11.3,11.3,0,0,1-2.16,2.89,10.33,10.33,0,0,1-5,2.64,15,15,0,0,1-3.59.39,11,11,0,0,1-8.27-3.56q-3.39-3.54-3.4-9.94A15,15,0,0,1,564,466.3a11.29,11.29,0,0,1,8.94-3.93A11.92,11.92,0,0,1,578.29,463.67Zm1.62,10.27a11.41,11.41,0,0,0-1.25-4.57q-1.8-3.17-6-3.17a6.71,6.71,0,0,0-5.08,2.18,8.25,8.25,0,0,0-2.17,5.56Z"/><path class="cls-1" d="M592.17,463h4.17v3.71a11.66,11.66,0,0,1,3.93-3.29,10.47,10.47,0,0,1,4.62-1c3.71,0,6.21,1.29,7.52,3.88a13.86,13.86,0,0,1,1.07,6.08V489.1H609V472.62a8.81,8.81,0,0,0-.71-3.86,4.28,4.28,0,0,0-4.24-2.44,8.76,8.76,0,0,0-2.57.32,6.58,6.58,0,0,0-3.17,2.15,6.47,6.47,0,0,0-1.43,2.67,17.94,17.94,0,0,0-.33,3.94v13.7h-4.39Z"/><path class="cls-1" d="M622.33,453.23h4.46v5h-4.46Zm0,9.84h4.46v26h-4.46Z"/><path class="cls-1" d="M649.8,473.25a2.37,2.37,0,0,0,2-1.27,3.77,3.77,0,0,0,.3-1.68,3.59,3.59,0,0,0-1.6-3.26,8.67,8.67,0,0,0-4.58-1c-2.3,0-3.92.62-4.88,1.85a6.07,6.07,0,0,0-1,3.05h-4.1q.12-4.83,3.13-6.72a12.89,12.89,0,0,1,7-1.89,14.25,14.25,0,0,1,7.49,1.75,6,6,0,0,1,2.86,5.47v15.07a1.93,1.93,0,0,0,.28,1.1,1.37,1.37,0,0,0,1.18.41,5.29,5.29,0,0,0,.66,0,7.69,7.69,0,0,0,.78-.11v3.25a11.59,11.59,0,0,1-1.56.37,11.33,11.33,0,0,1-1.46.07,3.62,3.62,0,0,1-3.3-1.61,6.27,6.27,0,0,1-.76-2.42,11.15,11.15,0,0,1-3.85,3.05,11.88,11.88,0,0,1-5.55,1.3,8.25,8.25,0,0,1-5.94-2.21,7.35,7.35,0,0,1-2.31-5.53,7.12,7.12,0,0,1,2.27-5.64,10.79,10.79,0,0,1,6-2.47Zm-9.26,11.89a5.13,5.13,0,0,0,3.3,1.1,10.08,10.08,0,0,0,4.49-1.07,6,6,0,0,0,3.66-5.84v-3.54a7.45,7.45,0,0,1-2.07.86,17.93,17.93,0,0,1-2.49.49l-2.66.34a10,10,0,0,0-3.59,1,3.89,3.89,0,0,0-2,3.66A3.63,3.63,0,0,0,640.54,485.14Z"/><path class="cls-1" d="M665.94,463h4.35v3.71a14.77,14.77,0,0,1,2.83-2.81,8.53,8.53,0,0,1,4.93-1.48,7.8,7.8,0,0,1,5,1.53,8.09,8.09,0,0,1,1.95,2.59,9.09,9.09,0,0,1,7.89-4.12c3.51,0,5.91,1.26,7.18,3.8a12.53,12.53,0,0,1,1,5.52V489.1h-4.56V470.93c0-1.74-.44-2.93-1.31-3.58a5.17,5.17,0,0,0-3.19-1,6.33,6.33,0,0,0-4.45,1.73q-1.87,1.74-1.87,5.79V489.1h-4.47V472a9,9,0,0,0-.63-3.88c-.67-1.22-1.91-1.83-3.74-1.83a6.43,6.43,0,0,0-4.53,1.93c-1.36,1.29-2,3.61-2,7V489.1h-4.4Z"/><path class="cls-1" d="M710.87,494.2a3.08,3.08,0,0,0,2.37-2.37,6.79,6.79,0,0,0,.36-2.12,2.91,2.91,0,0,0,0-.31,2,2,0,0,0-.06-.3h-2.66v-5.32h5.22v4.93a10.69,10.69,0,0,1-1.17,5.1,5.32,5.32,0,0,1-4,2.71Z"/><path class="cls-1" d="M757.22,464a9.84,9.84,0,0,1,2.34,2.59V463h4.18v36.57h-4.42V486.1a7.89,7.89,0,0,1-3,2.79,10.21,10.21,0,0,1-4.85,1,10.35,10.35,0,0,1-7.47-3.27q-3.29-3.27-3.29-10a16.46,16.46,0,0,1,3.09-10.31,9.61,9.61,0,0,1,8-4A9,9,0,0,1,757.22,464Zm-11,18.07a6,6,0,0,0,6,4.07,6.3,6.3,0,0,0,6.32-4.29,16.32,16.32,0,0,0,1-6.06,13.46,13.46,0,0,0-1-5.66,6.33,6.33,0,0,0-6.27-3.88,6.14,6.14,0,0,0-4.9,2.48q-2,2.47-2,7.65A14.81,14.81,0,0,0,746.21,482.07Z"/><path class="cls-1" d="M777,463v17.36a7.35,7.35,0,0,0,.63,3.27q1.17,2.34,4.37,2.34a6.17,6.17,0,0,0,6.25-4.1,16.29,16.29,0,0,0,.9-6V463h4.4V489.1h-4.15l0-3.86a9,9,0,0,1-2.13,2.52,9.37,9.37,0,0,1-6.1,2.05q-5.6,0-7.62-3.74a11.13,11.13,0,0,1-1.1-5.35V463Z"/><path class="cls-1" d="M802.74,453.23h4.47v5h-4.47Zm0,9.84h4.47v26h-4.47Z"/><path class="cls-1" d="M818.81,480.9a6.38,6.38,0,0,0,1.1,3.36q1.67,2.13,5.76,2.13a8.59,8.59,0,0,0,4.3-1.06,3.53,3.53,0,0,0,1.85-3.29,2.8,2.8,0,0,0-1.49-2.56,17.72,17.72,0,0,0-3.76-1.25l-3.49-.87a17.33,17.33,0,0,1-4.93-1.86,5.54,5.54,0,0,1-2.83-4.93,7.54,7.54,0,0,1,2.67-6,10.68,10.68,0,0,1,7.19-2.29q5.91,0,8.52,3.46a7.57,7.57,0,0,1,1.59,4.74h-4.15a5.09,5.09,0,0,0-1-2.71q-1.51-1.72-5.25-1.73a6.22,6.22,0,0,0-3.77,1,3,3,0,0,0-1.28,2.51,3.11,3.11,0,0,0,1.68,2.74,10,10,0,0,0,2.88,1.07l2.91.71a22.91,22.91,0,0,1,6.35,2.22,5.91,5.91,0,0,1,2.56,5.3,8.05,8.05,0,0,1-2.65,6q-2.65,2.54-8.07,2.54-5.84,0-8.26-2.65a10,10,0,0,1-2.6-6.55Z"/><path class="cls-1" d="M859.79,463H864v3.71a11.59,11.59,0,0,1,3.94-3.29,10.42,10.42,0,0,1,4.61-1q5.57,0,7.52,3.88a13.71,13.71,0,0,1,1.07,6.08V489.1h-4.46V472.62a9,9,0,0,0-.71-3.86,4.29,4.29,0,0,0-4.25-2.44,8.64,8.64,0,0,0-2.56.32,6.56,6.56,0,0,0-3.18,2.15,6.47,6.47,0,0,0-1.43,2.67,17.94,17.94,0,0,0-.33,3.94v13.7h-4.39Z"/><path class="cls-1" d="M909,465.56q3.5,3.38,3.49,9.92a17,17,0,0,1-3.08,10.44q-3.08,4.14-9.54,4.13a10.79,10.79,0,0,1-8.57-3.65q-3.18-3.64-3.17-9.8c0-4.4,1.11-7.89,3.34-10.5a11.23,11.23,0,0,1,9-3.91A11.88,11.88,0,0,1,909,465.56ZM906.32,483a16.53,16.53,0,0,0,1.62-7.36,13.14,13.14,0,0,0-1.17-6q-1.86-3.61-6.4-3.61a6.31,6.31,0,0,0-5.86,3.07,14.29,14.29,0,0,0-1.83,7.43,12.38,12.38,0,0,0,1.83,7,6.45,6.45,0,0,0,5.81,2.79C903.24,486.27,905.23,485.16,906.32,483Z"/><path class="cls-1" d="M922.72,480.9a6.3,6.3,0,0,0,1.1,3.36q1.65,2.13,5.76,2.13a8.59,8.59,0,0,0,4.3-1.06,3.55,3.55,0,0,0,1.85-3.29,2.82,2.82,0,0,0-1.49-2.56,17.93,17.93,0,0,0-3.76-1.25l-3.49-.87a17.33,17.33,0,0,1-4.93-1.86,5.54,5.54,0,0,1-2.83-4.93,7.54,7.54,0,0,1,2.67-6,10.66,10.66,0,0,1,7.19-2.29q5.91,0,8.52,3.46a7.57,7.57,0,0,1,1.59,4.74h-4.15a5.17,5.17,0,0,0-1-2.71q-1.51-1.72-5.25-1.73a6.22,6.22,0,0,0-3.77,1,3,3,0,0,0-1.29,2.51,3.12,3.12,0,0,0,1.69,2.74,10,10,0,0,0,2.88,1.07l2.9.71a22.78,22.78,0,0,1,6.35,2.22,5.9,5.9,0,0,1,2.57,5.3,8.09,8.09,0,0,1-2.65,6q-2.65,2.54-8.07,2.54-5.83,0-8.27-2.65a10,10,0,0,1-2.6-6.55Z"/><path class="cls-1" d="M946.31,472.91h12.25v4.52H946.31Z"/><path class="cls-1" d="M175.17,515.65h4.44V523h4.18v3.59h-4.18v17.07a1.85,1.85,0,0,0,.93,1.83,3.92,3.92,0,0,0,1.71.27l.68,0c.24,0,.53,0,.86-.06v3.47a10.28,10.28,0,0,1-1.58.32,16.36,16.36,0,0,1-1.77.09c-2.05,0-3.44-.52-4.17-1.57a6.94,6.94,0,0,1-1.1-4.09V526.54h-3.54V523h3.54Z"/><path class="cls-1" d="M190.65,523h4.18v4.52a10,10,0,0,1,2.51-3.21,6.53,6.53,0,0,1,4.62-1.89,3.78,3.78,0,0,1,.41,0l1,.1v4.64a5.16,5.16,0,0,0-.72-.1q-.33,0-.72,0a6.29,6.29,0,0,0-5.1,2.14,7.43,7.43,0,0,0-1.78,4.92v15h-4.4Z"/><path class="cls-1" d="M213.92,523v17.36a7.35,7.35,0,0,0,.64,3.27q1.17,2.34,4.37,2.34a6.17,6.17,0,0,0,6.25-4.1,16.29,16.29,0,0,0,.9-6V523h4.4V549.1h-4.15l0-3.86a9,9,0,0,1-2.13,2.52,9.39,9.39,0,0,1-6.1,2q-5.6,0-7.62-3.74a11.13,11.13,0,0,1-1.1-5.35V523Z"/><path class="cls-1" d="M254.12,523.76a12,12,0,0,1,2.66,2.56V513.11H261v36h-4v-3.64a9.41,9.41,0,0,1-3.63,3.49A10.39,10.39,0,0,1,248.6,550a9.73,9.73,0,0,1-7.57-3.68q-3.19-3.68-3.2-9.78a16.88,16.88,0,0,1,2.92-9.9,9.54,9.54,0,0,1,8.34-4.18A9.3,9.3,0,0,1,254.12,523.76Zm-9.87,19.6a6.24,6.24,0,0,0,5.71,2.83,6,6,0,0,0,5-2.62q2-2.62,2-7.53c0-3.31-.68-5.75-2-7.34a6.31,6.31,0,0,0-5-2.38,6.63,6.63,0,0,0-5.39,2.54q-2.06,2.53-2.06,7.47A12.94,12.94,0,0,0,244.25,543.36Z"/><path class="cls-1" d="M302.37,523.67a10,10,0,0,1,4,3.38,11.78,11.78,0,0,1,1.76,4.62,30.16,30.16,0,0,1,.39,5.76H289.33a11.17,11.17,0,0,0,1.88,6.38,6.29,6.29,0,0,0,5.45,2.41,7.05,7.05,0,0,0,5.49-2.27,7.64,7.64,0,0,0,1.66-3.05h4.32a9.06,9.06,0,0,1-1.13,3.21,11.78,11.78,0,0,1-2.16,2.89,10.33,10.33,0,0,1-5,2.64,15.07,15.07,0,0,1-3.59.39,11,11,0,0,1-8.27-3.56q-3.4-3.54-3.4-9.94A15,15,0,0,1,288,526.3a11.28,11.28,0,0,1,8.93-3.93A11.93,11.93,0,0,1,302.37,523.67ZM304,533.94a11.42,11.42,0,0,0-1.24-4.57q-1.82-3.17-6-3.17a6.71,6.71,0,0,0-5.08,2.18,8.25,8.25,0,0,0-2.17,5.56Z"/><path class="cls-1" d="M313.75,523h5.69l6,9.21,6.08-9.21,5.34.12-8.81,12.63,9.2,13.4h-5.61l-6.49-9.82-6.3,9.82h-5.57l9.2-13.4Z"/><path class="cls-1" d="M359.88,523.67a10,10,0,0,1,4,3.38,11.78,11.78,0,0,1,1.76,4.62,30.16,30.16,0,0,1,.39,5.76H346.84a11.17,11.17,0,0,0,1.88,6.38,6.29,6.29,0,0,0,5.45,2.41,7.05,7.05,0,0,0,5.49-2.27,7.76,7.76,0,0,0,1.66-3.05h4.32a8.9,8.9,0,0,1-1.14,3.21,11.3,11.3,0,0,1-2.16,2.89,10.25,10.25,0,0,1-4.95,2.64,15.13,15.13,0,0,1-3.59.39,11,11,0,0,1-8.28-3.56q-3.39-3.54-3.39-9.94a15,15,0,0,1,3.42-10.23,11.26,11.26,0,0,1,8.93-3.93A11.93,11.93,0,0,1,359.88,523.67Zm1.61,10.27a11.25,11.25,0,0,0-1.25-4.57q-1.8-3.17-6-3.17a6.69,6.69,0,0,0-5.07,2.18,8.25,8.25,0,0,0-2.18,5.56Z"/><path class="cls-1" d="M373.87,523h4.18v4.52a10,10,0,0,1,2.51-3.21,6.55,6.55,0,0,1,4.62-1.89,3.69,3.69,0,0,1,.41,0l1,.1v4.64a5.16,5.16,0,0,0-.72-.1q-.33,0-.72,0a6.29,6.29,0,0,0-5.1,2.14,7.43,7.43,0,0,0-1.78,4.92v15h-4.4Z"/><path class="cls-1" d="M410,524.34c1.84,1.44,3,3.9,3.33,7.4h-4.28a7.9,7.9,0,0,0-1.78-4,5.63,5.63,0,0,0-4.47-1.6,6.17,6.17,0,0,0-6,4.11,16.28,16.28,0,0,0-1.17,6.56,12.32,12.32,0,0,0,1.66,6.62,6.43,6.43,0,0,0,9.56,1,9.16,9.16,0,0,0,2.2-4.57h4.28c-.49,3.46-1.71,6-3.66,7.6a11.48,11.48,0,0,1-7.5,2.41,10,10,0,0,1-8.18-3.75,14.37,14.37,0,0,1-3-9.36q0-6.88,3.34-10.72a10.8,10.8,0,0,1,8.52-3.84A11.44,11.44,0,0,1,410,524.34Z"/><path class="cls-1" d="M420.1,513.23h4.47v5H420.1Zm0,9.84h4.47v26H420.1Z"/><path class="cls-1" d="M434.44,515.65h4.44V523h4.18v3.59h-4.18v17.07a1.85,1.85,0,0,0,.93,1.83,3.92,3.92,0,0,0,1.71.27l.68,0c.25,0,.53,0,.86-.06v3.47a10,10,0,0,1-1.58.32,16.09,16.09,0,0,1-1.77.09c-2,0-3.44-.52-4.17-1.57a7,7,0,0,1-1.1-4.09V526.54H430.9V523h3.54Z"/><path class="cls-1" d="M463.82,533.25a2.38,2.38,0,0,0,2-1.27,3.78,3.78,0,0,0,.29-1.68,3.58,3.58,0,0,0-1.59-3.26,8.67,8.67,0,0,0-4.58-1c-2.3,0-3.92.62-4.88,1.85a6.07,6.07,0,0,0-1.05,3h-4.11c.09-3.22,1.13-5.46,3.14-6.72a12.89,12.89,0,0,1,7-1.89,14.25,14.25,0,0,1,7.49,1.75,6,6,0,0,1,2.86,5.47v15.07a1.93,1.93,0,0,0,.28,1.1,1.37,1.37,0,0,0,1.18.41,5.29,5.29,0,0,0,.66,0,7.69,7.69,0,0,0,.78-.11v3.25a11.59,11.59,0,0,1-1.56.37,11.33,11.33,0,0,1-1.46.07,3.62,3.62,0,0,1-3.3-1.61,6.27,6.27,0,0,1-.76-2.42,11.15,11.15,0,0,1-3.85,3,11.88,11.88,0,0,1-5.55,1.3,8.25,8.25,0,0,1-5.94-2.21,7.35,7.35,0,0,1-2.31-5.53,7.12,7.12,0,0,1,2.27-5.64,10.79,10.79,0,0,1,6-2.47Zm-9.26,11.89a5.13,5.13,0,0,0,3.3,1.1,10.11,10.11,0,0,0,4.49-1.07,6,6,0,0,0,3.66-5.84v-3.54a7.59,7.59,0,0,1-2.07.86,17.93,17.93,0,0,1-2.49.49l-2.66.34a10,10,0,0,0-3.59,1,3.89,3.89,0,0,0-2,3.66A3.6,3.6,0,0,0,454.56,545.14Z"/><path class="cls-1" d="M480.84,515.65h4.44V523h4.18v3.59h-4.18v17.07a1.85,1.85,0,0,0,.93,1.83,3.92,3.92,0,0,0,1.71.27l.68,0c.25,0,.53,0,.86-.06v3.47a10,10,0,0,1-1.58.32,16.09,16.09,0,0,1-1.77.09c-2.05,0-3.44-.52-4.17-1.57a7,7,0,0,1-1.1-4.09V526.54H477.3V523h3.54Z"/><path class="cls-1" d="M496.2,513.23h4.47v5H496.2Zm0,9.84h4.47v26H496.2Z"/><path class="cls-1" d="M528.75,525.56q3.5,3.38,3.49,9.92a17,17,0,0,1-3.07,10.44q-3.07,4.14-9.55,4.13a10.79,10.79,0,0,1-8.57-3.65q-3.17-3.64-3.17-9.8c0-4.4,1.11-7.89,3.34-10.5a11.25,11.25,0,0,1,9-3.91A11.86,11.86,0,0,1,528.75,525.56ZM526,543a16.53,16.53,0,0,0,1.62-7.36,13.14,13.14,0,0,0-1.17-6q-1.86-3.61-6.4-3.61a6.32,6.32,0,0,0-5.86,3.07,14.29,14.29,0,0,0-1.83,7.43,12.38,12.38,0,0,0,1.83,7,6.46,6.46,0,0,0,5.82,2.79C523,546.27,525,545.16,526,543Z"/><path class="cls-1" d="M539.82,523H544v3.71a11.66,11.66,0,0,1,3.93-3.29,10.47,10.47,0,0,1,4.62-1c3.71,0,6.21,1.29,7.52,3.88a13.86,13.86,0,0,1,1.07,6.08V549.1h-4.47V532.62a9,9,0,0,0-.7-3.86,4.3,4.3,0,0,0-4.25-2.44,8.76,8.76,0,0,0-2.57.32,6.58,6.58,0,0,0-3.17,2.15,6.47,6.47,0,0,0-1.43,2.67,17.94,17.94,0,0,0-.33,3.94v13.7h-4.39Z"/><path class="cls-1" d="M590.61,523v17.36a7.21,7.21,0,0,0,.64,3.27c.78,1.56,2.23,2.34,4.37,2.34a6.17,6.17,0,0,0,6.25-4.1,16.29,16.29,0,0,0,.9-6V523h4.39V549.1H603l0-3.86a9.12,9.12,0,0,1-2.12,2.52,9.4,9.4,0,0,1-6.11,2q-5.58,0-7.61-3.74a11,11,0,0,1-1.1-5.35V523Z"/><path class="cls-1" d="M616.5,513.23h4.39V549.1H616.5Z"/><path class="cls-1" d="M630,513.23h4.39V549.1H630Z"/><path class="cls-1" d="M657.3,533.25a2.38,2.38,0,0,0,2-1.27,3.78,3.78,0,0,0,.29-1.68A3.58,3.58,0,0,0,658,527a8.67,8.67,0,0,0-4.58-1q-3.45,0-4.89,1.85a6.27,6.27,0,0,0-1,3h-4.1q.12-4.83,3.14-6.72a12.88,12.88,0,0,1,7-1.89,14.26,14.26,0,0,1,7.5,1.75,6,6,0,0,1,2.86,5.47v15.07a1.93,1.93,0,0,0,.28,1.1,1.36,1.36,0,0,0,1.18.41,5.29,5.29,0,0,0,.66,0c.24,0,.51-.06.78-.11v3.25a11.59,11.59,0,0,1-1.56.37,11.4,11.4,0,0,1-1.47.07,3.61,3.61,0,0,1-3.29-1.61,6.27,6.27,0,0,1-.76-2.42,11.1,11.1,0,0,1-3.86,3,11.81,11.81,0,0,1-5.54,1.3,8.25,8.25,0,0,1-5.94-2.21,7.35,7.35,0,0,1-2.31-5.53,7.12,7.12,0,0,1,2.27-5.64,10.76,10.76,0,0,1,6-2.47Zm-9.25,11.89a5.13,5.13,0,0,0,3.3,1.1,10.11,10.11,0,0,0,4.49-1.07,6,6,0,0,0,3.66-5.84v-3.54a7.72,7.72,0,0,1-2.07.86,17.93,17.93,0,0,1-2.49.49l-2.66.34a10,10,0,0,0-3.59,1,3.89,3.89,0,0,0-2,3.66A3.6,3.6,0,0,0,648.05,545.14Z"/><path class="cls-1" d="M673.45,523h4.34v3.71a15.07,15.07,0,0,1,2.84-2.81,8.5,8.5,0,0,1,4.93-1.48,7.8,7.8,0,0,1,5,1.53,8.09,8.09,0,0,1,1.95,2.59,9.45,9.45,0,0,1,3.44-3.11,9.56,9.56,0,0,1,4.45-1c3.51,0,5.9,1.26,7.17,3.8a12.38,12.38,0,0,1,1,5.52V549.1h-4.57V530.93c0-1.74-.43-2.93-1.3-3.58a5.2,5.2,0,0,0-3.19-1,6.33,6.33,0,0,0-4.45,1.73q-1.87,1.74-1.87,5.79V549.1h-4.47V532a9,9,0,0,0-.63-3.88c-.67-1.22-1.92-1.83-3.74-1.83a6.43,6.43,0,0,0-4.53,1.93c-1.36,1.29-2,3.61-2,7V549.1h-4.39Z"/><path class="cls-1" d="M734.72,524.34c1.85,1.44,3,3.9,3.33,7.4h-4.27a7.9,7.9,0,0,0-1.78-4,5.66,5.66,0,0,0-4.47-1.6,6.16,6.16,0,0,0-6,4.11,16.1,16.1,0,0,0-1.18,6.56,12.41,12.41,0,0,0,1.66,6.62,6.43,6.43,0,0,0,9.56,1,9.09,9.09,0,0,0,2.21-4.57h4.27c-.48,3.46-1.7,6-3.66,7.6a11.43,11.43,0,0,1-7.49,2.41,10,10,0,0,1-8.18-3.75,14.31,14.31,0,0,1-3.05-9.36q0-6.88,3.34-10.72a10.8,10.8,0,0,1,8.52-3.84A11.41,11.41,0,0,1,734.72,524.34Z"/><path class="cls-1" d="M763.89,525.56q3.5,3.38,3.49,9.92a17,17,0,0,1-3.07,10.44q-3.09,4.14-9.55,4.13a10.79,10.79,0,0,1-8.57-3.65q-3.18-3.64-3.17-9.8c0-4.4,1.11-7.89,3.34-10.5a11.25,11.25,0,0,1,9-3.91A11.87,11.87,0,0,1,763.89,525.56ZM761.17,543a16.53,16.53,0,0,0,1.62-7.36,13.14,13.14,0,0,0-1.17-6q-1.86-3.61-6.4-3.61a6.31,6.31,0,0,0-5.86,3.07,14.29,14.29,0,0,0-1.83,7.43,12.38,12.38,0,0,0,1.83,7,6.45,6.45,0,0,0,5.81,2.79C758.09,546.27,760.09,545.16,761.17,543Z"/><path class="cls-1" d="M791.32,513.23h4.39V549.1h-4.39Z"/><path class="cls-1" d="M818.67,533.25a2.38,2.38,0,0,0,2-1.27,3.93,3.93,0,0,0,.29-1.68,3.56,3.56,0,0,0-1.6-3.26,8.64,8.64,0,0,0-4.58-1q-3.43,0-4.88,1.85a6.07,6.07,0,0,0-1,3h-4.1q.12-4.83,3.14-6.72a12.88,12.88,0,0,1,7-1.89,14.28,14.28,0,0,1,7.5,1.75,6,6,0,0,1,2.85,5.47v15.07a2,2,0,0,0,.28,1.1,1.38,1.38,0,0,0,1.19.41,5.52,5.52,0,0,0,.66,0c.24,0,.5-.06.78-.11v3.25a12.34,12.34,0,0,1-1.56.37,11.4,11.4,0,0,1-1.47.07,3.64,3.64,0,0,1-3.3-1.61,6.28,6.28,0,0,1-.75-2.42,11.19,11.19,0,0,1-3.86,3,11.84,11.84,0,0,1-5.54,1.3,8.26,8.26,0,0,1-6-2.21,7.38,7.38,0,0,1-2.3-5.53,7.09,7.09,0,0,1,2.27-5.64,10.76,10.76,0,0,1,5.95-2.47Zm-9.25,11.89a5.1,5.1,0,0,0,3.29,1.1,10.12,10.12,0,0,0,4.5-1.07,6,6,0,0,0,3.66-5.84v-3.54a7.66,7.66,0,0,1-2.08.86,17.38,17.38,0,0,1-2.49.49l-2.66.34a10.11,10.11,0,0,0-3.59,1,3.88,3.88,0,0,0-2,3.66A3.6,3.6,0,0,0,809.42,545.14Z"/><path class="cls-1" d="M834.47,513.11h4.27v13a9.82,9.82,0,0,1,3.45-2.86,9.64,9.64,0,0,1,4.34-1,10.22,10.22,0,0,1,7.93,3.35q3,3.36,3,9.9a17,17,0,0,1-3,10.31,9.75,9.75,0,0,1-8.32,4.1,8.51,8.51,0,0,1-5-1.44,11.76,11.76,0,0,1-2.61-2.74v3.35h-4.06Zm16.76,30.1a13.9,13.9,0,0,0,1.77-7.47,12.23,12.23,0,0,0-1.77-6.83A5.82,5.82,0,0,0,846,526.2a7.26,7.26,0,0,0-5.26,2.22q-2.26,2.22-2.26,7.32a16.19,16.19,0,0,0,.93,6,6.4,6.4,0,0,0,6.47,4.32A5.87,5.87,0,0,0,851.23,543.21Z"/><path class="cls-1" d="M884.06,525.56q3.5,3.38,3.49,9.92a17,17,0,0,1-3.07,10.44q-3.08,4.14-9.55,4.13a10.8,10.8,0,0,1-8.57-3.65q-3.17-3.64-3.17-9.8c0-4.4,1.11-7.89,3.34-10.5a11.25,11.25,0,0,1,9-3.91A11.84,11.84,0,0,1,884.06,525.56ZM881.34,543A16.53,16.53,0,0,0,883,535.6a13.14,13.14,0,0,0-1.17-6c-1.23-2.41-3.37-3.61-6.39-3.61a6.3,6.3,0,0,0-5.86,3.07,14.29,14.29,0,0,0-1.83,7.43,12.38,12.38,0,0,0,1.83,7,6.43,6.43,0,0,0,5.81,2.79C878.26,546.27,880.26,545.16,881.34,543Z"/><path class="cls-1" d="M895.25,523h4.18v4.52a10,10,0,0,1,2.51-3.21,6.53,6.53,0,0,1,4.61-1.89,3.75,3.75,0,0,1,.42,0l1,.1v4.64a5.16,5.16,0,0,0-.72-.1q-.33,0-.72,0a6.29,6.29,0,0,0-5.1,2.14,7.43,7.43,0,0,0-1.78,4.92v15h-4.4Z"/><path class="cls-1" d="M914.13,513.23h4.47v5h-4.47Zm0,9.84h4.47v26h-4.47Z"/><path class="cls-1" d="M930.2,540.9a6.38,6.38,0,0,0,1.1,3.36q1.66,2.13,5.76,2.13a8.59,8.59,0,0,0,4.3-1.06,3.55,3.55,0,0,0,1.85-3.29,2.8,2.8,0,0,0-1.49-2.56,17.72,17.72,0,0,0-3.76-1.25l-3.49-.87a17.33,17.33,0,0,1-4.93-1.86,5.54,5.54,0,0,1-2.83-4.93,7.54,7.54,0,0,1,2.67-6,10.68,10.68,0,0,1,7.19-2.29q5.91,0,8.52,3.46a7.57,7.57,0,0,1,1.59,4.74h-4.15a5.09,5.09,0,0,0-1-2.71Q940,526,936.23,526a6.22,6.22,0,0,0-3.77,1,3,3,0,0,0-1.28,2.51,3.11,3.11,0,0,0,1.68,2.74,10,10,0,0,0,2.88,1.07l2.91.71a23,23,0,0,1,6.35,2.22,5.89,5.89,0,0,1,2.56,5.3,8.05,8.05,0,0,1-2.65,6c-1.77,1.69-4.45,2.54-8.07,2.54q-5.83,0-8.26-2.65a10,10,0,0,1-2.6-6.55Z"/><path class="cls-1" d="M139.74,583h4.17v3.71a11.66,11.66,0,0,1,3.93-3.29,10.5,10.5,0,0,1,4.62-1q5.56,0,7.52,3.88a13.86,13.86,0,0,1,1.07,6.08V609.1h-4.47V592.62a9,9,0,0,0-.7-3.86,4.29,4.29,0,0,0-4.25-2.44,8.76,8.76,0,0,0-2.57.32,6.58,6.58,0,0,0-3.17,2.15,6.47,6.47,0,0,0-1.43,2.67,17.94,17.94,0,0,0-.33,3.94v13.7h-4.39Z"/><path class="cls-1" d="M169.9,573.23h4.46v5H169.9Zm0,9.84h4.46v26H169.9Z"/><path class="cls-1" d="M186,600.9a6.3,6.3,0,0,0,1.1,3.36q1.65,2.13,5.76,2.13a8.53,8.53,0,0,0,4.29-1.06A3.54,3.54,0,0,0,199,602a2.82,2.82,0,0,0-1.49-2.56,17.93,17.93,0,0,0-3.76-1.25l-3.49-.87a17.33,17.33,0,0,1-4.93-1.86,5.54,5.54,0,0,1-2.83-4.93,7.54,7.54,0,0,1,2.67-6,10.66,10.66,0,0,1,7.19-2.29q5.91,0,8.52,3.46a7.57,7.57,0,0,1,1.59,4.74H198.3a5.17,5.17,0,0,0-1.05-2.71Q195.74,586,192,586a6.22,6.22,0,0,0-3.77,1,3,3,0,0,0-1.29,2.51,3.12,3.12,0,0,0,1.69,2.74,10,10,0,0,0,2.88,1.07l2.9.71a22.78,22.78,0,0,1,6.35,2.22,5.9,5.9,0,0,1,2.57,5.3,8.09,8.09,0,0,1-2.65,6q-2.66,2.54-8.07,2.54-5.84,0-8.27-2.65a10,10,0,0,1-2.6-6.55Z"/><path class="cls-1" d="M210.71,573.23h4.46v5h-4.46Zm0,9.84h4.46v26h-4.46Z"/><path class="cls-1" d="M244.8,583v17.36a7.35,7.35,0,0,0,.63,3.27q1.17,2.34,4.37,2.34a6.16,6.16,0,0,0,6.25-4.1,16.06,16.06,0,0,0,.91-6V583h4.39V609.1H257.2l.05-3.86a9.12,9.12,0,0,1-2.12,2.52,9.4,9.4,0,0,1-6.11,2c-3.73,0-6.26-1.25-7.61-3.74a11,11,0,0,1-1.1-5.35V583Z"/><path class="cls-1" d="M271.44,575.65h4.44V583h4.18v3.59h-4.18v17.07a1.85,1.85,0,0,0,.93,1.83,3.92,3.92,0,0,0,1.71.27l.69,0c.24,0,.52,0,.85-.06v3.47a10,10,0,0,1-1.58.32,16.09,16.09,0,0,1-1.77.09c-2,0-3.44-.52-4.17-1.57a7,7,0,0,1-1.1-4.09V586.54H267.9V583h3.54Z"/><path class="cls-1" d="M317.06,593.25a2.4,2.4,0,0,0,2-1.27,3.93,3.93,0,0,0,.29-1.68,3.56,3.56,0,0,0-1.6-3.26,8.64,8.64,0,0,0-4.58-1q-3.43,0-4.88,1.85a6.07,6.07,0,0,0-1.05,3h-4.1q.12-4.83,3.13-6.72a12.92,12.92,0,0,1,7-1.89,14.22,14.22,0,0,1,7.49,1.75,6,6,0,0,1,2.86,5.47v15.07a1.93,1.93,0,0,0,.28,1.1,1.38,1.38,0,0,0,1.19.41,5.52,5.52,0,0,0,.66,0c.24,0,.5-.06.78-.11v3.25a12,12,0,0,1-1.57.37,11.23,11.23,0,0,1-1.46.07,3.64,3.64,0,0,1-3.3-1.61,6.28,6.28,0,0,1-.75-2.42,11.29,11.29,0,0,1-3.86,3,11.87,11.87,0,0,1-5.54,1.3,8.26,8.26,0,0,1-5.95-2.21,7.35,7.35,0,0,1-2.31-5.53,7.1,7.1,0,0,1,2.28-5.64,10.73,10.73,0,0,1,5.95-2.47Zm-9.25,11.89a5.09,5.09,0,0,0,3.29,1.1,10,10,0,0,0,4.49-1.07,6,6,0,0,0,3.67-5.84v-3.54a7.66,7.66,0,0,1-2.08.86,17.93,17.93,0,0,1-2.49.49l-2.66.34a10,10,0,0,0-3.59,1,3.89,3.89,0,0,0-2,3.66A3.61,3.61,0,0,0,307.81,605.14Z"/><path class="cls-1" d="M333.33,573.23h4.39V609.1h-4.39Z"/><path class="cls-1" d="M346.66,573.23h4.47v5h-4.47Zm0,9.84h4.47v26h-4.47Z"/><path class="cls-1" d="M374.92,584a9.84,9.84,0,0,1,2.34,2.59V583h4.17v36.57H377V606.1a7.82,7.82,0,0,1-3,2.79,10.17,10.17,0,0,1-4.84,1,10.35,10.35,0,0,1-7.47-3.27q-3.3-3.27-3.3-10a16.46,16.46,0,0,1,3.09-10.31,9.63,9.63,0,0,1,8-4A9,9,0,0,1,374.92,584Zm-11,18.07a6.05,6.05,0,0,0,6,4.07,6.32,6.32,0,0,0,6.33-4.29,16.53,16.53,0,0,0,.95-6.06,13.46,13.46,0,0,0-1-5.66,6.34,6.34,0,0,0-6.27-3.88,6.13,6.13,0,0,0-4.9,2.48q-2,2.47-2,7.65A15,15,0,0,0,363.9,602.07Z"/><path class="cls-1" d="M394.67,583v17.36a7.21,7.21,0,0,0,.64,3.27c.78,1.56,2.23,2.34,4.37,2.34a6.17,6.17,0,0,0,6.25-4.1,16.29,16.29,0,0,0,.9-6V583h4.39V609.1h-4.15l.05-3.86a9,9,0,0,1-2.12,2.52,9.39,9.39,0,0,1-6.1,2q-5.59,0-7.62-3.74a11.13,11.13,0,0,1-1.1-5.35V583Z"/><path class="cls-1" d="M420.44,573.23h4.46v5h-4.46Zm0,9.84h4.46v26h-4.46Z"/><path class="cls-1" d="M433.55,583.07h4.27v3.47a10.55,10.55,0,0,1,2.89-2.76,9.23,9.23,0,0,1,5.22-1.46,9.8,9.8,0,0,1,7.54,3.4q3.11,3.4,3.1,9.73,0,8.55-4.46,12.21a10.15,10.15,0,0,1-6.6,2.32,8.86,8.86,0,0,1-4.95-1.3,11.18,11.18,0,0,1-2.61-2.51v13.35h-4.4ZM450,603.57q2-2.58,2-7.7a14.37,14.37,0,0,0-.9-5.37,6.23,6.23,0,0,0-6.25-4.33c-3.05,0-5.13,1.53-6.25,4.57a18.14,18.14,0,0,0-.9,6.2,13.15,13.15,0,0,0,.9,5.15A6.64,6.64,0,0,0,450,603.57Z"/><path class="cls-1" d="M496.58,583.67a10,10,0,0,1,4,3.38,11.62,11.62,0,0,1,1.75,4.62,30,30,0,0,1,.4,5.76H483.54a11.17,11.17,0,0,0,1.88,6.38,6.28,6.28,0,0,0,5.44,2.41,7.06,7.06,0,0,0,5.5-2.27A7.76,7.76,0,0,0,498,600.9h4.32a9.1,9.1,0,0,1-1.14,3.21A11.3,11.3,0,0,1,499,607a10.25,10.25,0,0,1-5,2.64,15.13,15.13,0,0,1-3.59.39,11,11,0,0,1-8.28-3.56q-3.39-3.54-3.39-9.94a15,15,0,0,1,3.42-10.23,11.25,11.25,0,0,1,8.93-3.93A11.93,11.93,0,0,1,496.58,583.67Zm1.61,10.27a11.41,11.41,0,0,0-1.25-4.57q-1.8-3.17-6-3.17a6.71,6.71,0,0,0-5.08,2.18,8.29,8.29,0,0,0-2.17,5.56Z"/><path class="cls-1" d="M508,583h5.69l6,9.21,6.08-9.21,5.35.12-8.81,12.63,9.2,13.4h-5.61l-6.5-9.82-6.3,9.82H507.5l9.2-13.4Z"/><path class="cls-1" d="M570.33,583.67a10,10,0,0,1,4,3.38,11.77,11.77,0,0,1,1.75,4.62,30.16,30.16,0,0,1,.39,5.76H557.29a11.17,11.17,0,0,0,1.88,6.38,6.28,6.28,0,0,0,5.44,2.41,7.06,7.06,0,0,0,5.5-2.27,7.76,7.76,0,0,0,1.66-3.05h4.32a9.1,9.1,0,0,1-1.14,3.21,11.3,11.3,0,0,1-2.16,2.89,10.3,10.3,0,0,1-4.95,2.64,15.13,15.13,0,0,1-3.59.39,11,11,0,0,1-8.28-3.56q-3.39-3.54-3.39-9.94A15,15,0,0,1,556,586.3a11.25,11.25,0,0,1,8.93-3.93A12,12,0,0,1,570.33,583.67Zm1.61,10.27a11.41,11.41,0,0,0-1.25-4.57q-1.8-3.17-6-3.17a6.71,6.71,0,0,0-5.08,2.18,8.29,8.29,0,0,0-2.17,5.56Z"/><path class="cls-1" d="M598.21,593.25a2.38,2.38,0,0,0,2-1.27,3.78,3.78,0,0,0,.29-1.68,3.56,3.56,0,0,0-1.6-3.26,8.6,8.6,0,0,0-4.57-1q-3.45,0-4.89,1.85a6.27,6.27,0,0,0-1.05,3h-4.1q.12-4.83,3.14-6.72a12.88,12.88,0,0,1,7-1.89,14.26,14.26,0,0,1,7.5,1.75,6,6,0,0,1,2.85,5.47v15.07a1.93,1.93,0,0,0,.29,1.1,1.36,1.36,0,0,0,1.18.41,5.4,5.4,0,0,0,.66,0c.24,0,.5-.06.78-.11v3.25a11.59,11.59,0,0,1-1.56.37,11.4,11.4,0,0,1-1.47.07,3.61,3.61,0,0,1-3.29-1.61,6.27,6.27,0,0,1-.76-2.42,11.19,11.19,0,0,1-3.86,3,11.81,11.81,0,0,1-5.54,1.3,8.24,8.24,0,0,1-5.94-2.21,7.35,7.35,0,0,1-2.31-5.53,7.12,7.12,0,0,1,2.27-5.64,10.76,10.76,0,0,1,6-2.47ZM589,605.14a5.13,5.13,0,0,0,3.3,1.1,10.11,10.11,0,0,0,4.49-1.07,6,6,0,0,0,3.66-5.84v-3.54a7.72,7.72,0,0,1-2.07.86,17.93,17.93,0,0,1-2.49.49l-2.67.34a10,10,0,0,0-3.58,1,3.87,3.87,0,0,0-2,3.66A3.6,3.6,0,0,0,589,605.14Z"/><path class="cls-1" d="M647.87,584.34c1.85,1.44,3,3.9,3.34,7.4h-4.28a7.9,7.9,0,0,0-1.78-4,5.66,5.66,0,0,0-4.47-1.6,6.16,6.16,0,0,0-6,4.11,16.1,16.1,0,0,0-1.18,6.56,12.41,12.41,0,0,0,1.66,6.62,6.43,6.43,0,0,0,9.56,1,9.09,9.09,0,0,0,2.21-4.57h4.28c-.49,3.46-1.71,6-3.67,7.6a11.43,11.43,0,0,1-7.49,2.41,10,10,0,0,1-8.18-3.75,14.31,14.31,0,0,1-3-9.36q0-6.88,3.34-10.72a10.8,10.8,0,0,1,8.52-3.84A11.41,11.41,0,0,1,647.87,584.34Z"/><path class="cls-1" d="M677,585.56q3.5,3.38,3.49,9.92a17,17,0,0,1-3.07,10.44q-3.09,4.14-9.55,4.13a10.79,10.79,0,0,1-8.57-3.65q-3.18-3.64-3.17-9.8c0-4.4,1.11-7.89,3.34-10.5a11.25,11.25,0,0,1,9-3.91A11.86,11.86,0,0,1,677,585.56ZM674.32,603a16.53,16.53,0,0,0,1.62-7.36,13.14,13.14,0,0,0-1.17-6q-1.86-3.61-6.4-3.61a6.31,6.31,0,0,0-5.86,3.07,14.29,14.29,0,0,0-1.83,7.43,12.38,12.38,0,0,0,1.83,7,6.45,6.45,0,0,0,5.81,2.79C671.24,606.27,673.24,605.16,674.32,603Z"/><path class="cls-1" d="M688.11,583h4.34v3.71a15.06,15.06,0,0,1,2.83-2.81,8.56,8.56,0,0,1,4.94-1.48,7.8,7.8,0,0,1,5,1.53,8.23,8.23,0,0,1,2,2.59,9.37,9.37,0,0,1,3.44-3.11,9.55,9.55,0,0,1,4.44-1c3.52,0,5.91,1.26,7.18,3.8a12.38,12.38,0,0,1,1,5.52V609.1h-4.57V590.93c0-1.74-.43-2.93-1.3-3.58a5.22,5.22,0,0,0-3.19-1,6.36,6.36,0,0,0-4.46,1.73q-1.86,1.74-1.86,5.79V609.1h-4.47V592a8.78,8.78,0,0,0-.64-3.88c-.66-1.22-1.91-1.83-3.73-1.83a6.43,6.43,0,0,0-4.53,1.93c-1.36,1.29-2,3.61-2,7V609.1h-4.39Z"/><path class="cls-1" d="M732.11,583h4.34v3.71a14.78,14.78,0,0,1,2.84-2.81,8.5,8.5,0,0,1,4.93-1.48,7.8,7.8,0,0,1,5,1.53,8.23,8.23,0,0,1,2,2.59,9.45,9.45,0,0,1,3.44-3.11,9.55,9.55,0,0,1,4.44-1c3.52,0,5.91,1.26,7.18,3.8a12.38,12.38,0,0,1,1,5.52V609.1h-4.57V590.93c0-1.74-.43-2.93-1.3-3.58a5.22,5.22,0,0,0-3.19-1,6.36,6.36,0,0,0-4.46,1.73q-1.86,1.74-1.86,5.79V609.1h-4.47V592a8.78,8.78,0,0,0-.64-3.88c-.66-1.22-1.91-1.83-3.73-1.83a6.43,6.43,0,0,0-4.53,1.93c-1.36,1.29-2,3.61-2,7V609.1h-4.39Z"/><path class="cls-1" d="M795.2,585.56q3.49,3.38,3.49,9.92a16.93,16.93,0,0,1-3.08,10.44q-3.08,4.14-9.54,4.13a10.79,10.79,0,0,1-8.57-3.65q-3.18-3.64-3.17-9.8c0-4.4,1.11-7.89,3.34-10.5a11.23,11.23,0,0,1,9-3.91A11.88,11.88,0,0,1,795.2,585.56ZM792.48,603a16.53,16.53,0,0,0,1.62-7.36,13.14,13.14,0,0,0-1.17-6q-1.86-3.61-6.4-3.61a6.31,6.31,0,0,0-5.86,3.07,14.29,14.29,0,0,0-1.83,7.43,12.38,12.38,0,0,0,1.83,7,6.45,6.45,0,0,0,5.81,2.79C789.4,606.27,791.39,605.16,792.48,603Z"/><path class="cls-1" d="M820.69,583.76a12,12,0,0,1,2.67,2.56V573.11h4.22v36h-4v-3.64A9.48,9.48,0,0,1,820,609a10.39,10.39,0,0,1-4.81,1.08,9.73,9.73,0,0,1-7.57-3.68q-3.2-3.68-3.2-9.78a16.88,16.88,0,0,1,2.92-9.9,9.53,9.53,0,0,1,8.33-4.18A9.25,9.25,0,0,1,820.69,583.76Zm-9.86,19.6a6.24,6.24,0,0,0,5.71,2.83,6,6,0,0,0,5-2.62q2-2.62,2-7.53c0-3.31-.68-5.75-2-7.34a6.31,6.31,0,0,0-5-2.38,6.62,6.62,0,0,0-5.38,2.54q-2.05,2.53-2.06,7.47A12.94,12.94,0,0,0,810.83,603.36Z"/><path class="cls-1" d="M855.51,585.56q3.5,3.38,3.5,9.92a17,17,0,0,1-3.08,10.44q-3.07,4.14-9.55,4.13a10.8,10.8,0,0,1-8.57-3.65q-3.16-3.64-3.17-9.8c0-4.4,1.11-7.89,3.34-10.5a11.25,11.25,0,0,1,9-3.91A11.84,11.84,0,0,1,855.51,585.56ZM852.79,603a16.53,16.53,0,0,0,1.63-7.36,13,13,0,0,0-1.18-6Q851.4,586,846.85,586A6.3,6.3,0,0,0,841,589.1a14.29,14.29,0,0,0-1.83,7.43,12.38,12.38,0,0,0,1.83,7,6.43,6.43,0,0,0,5.81,2.79C849.71,606.27,851.71,605.16,852.79,603Z"/><path class="cls-1" d="M900.09,584.34c1.85,1.44,3,3.9,3.34,7.4h-4.28a7.9,7.9,0,0,0-1.78-4,5.63,5.63,0,0,0-4.47-1.6,6.17,6.17,0,0,0-6,4.11,16.28,16.28,0,0,0-1.17,6.56,12.32,12.32,0,0,0,1.66,6.62,6.43,6.43,0,0,0,9.56,1,9.16,9.16,0,0,0,2.2-4.57h4.28c-.49,3.46-1.71,6-3.66,7.6a11.48,11.48,0,0,1-7.5,2.41,10,10,0,0,1-8.18-3.75,14.37,14.37,0,0,1-3.05-9.36q0-6.88,3.34-10.72a10.8,10.8,0,0,1,8.52-3.84A11.39,11.39,0,0,1,900.09,584.34Z"/><path class="cls-1" d="M929.26,585.56q3.5,3.38,3.49,9.92a17,17,0,0,1-3.07,10.44q-3.07,4.14-9.55,4.13a10.8,10.8,0,0,1-8.57-3.65q-3.16-3.64-3.17-9.8c0-4.4,1.11-7.89,3.34-10.5a11.25,11.25,0,0,1,9-3.91A11.84,11.84,0,0,1,929.26,585.56ZM926.54,603a16.53,16.53,0,0,0,1.63-7.36,13.13,13.13,0,0,0-1.18-6c-1.23-2.41-3.37-3.61-6.39-3.61a6.3,6.3,0,0,0-5.86,3.07,14.29,14.29,0,0,0-1.83,7.43,12.38,12.38,0,0,0,1.83,7,6.43,6.43,0,0,0,5.81,2.79C923.46,606.27,925.46,605.16,926.54,603Z"/><path class="cls-1" d="M940.33,583h4.17v3.71a11.59,11.59,0,0,1,3.94-3.29,10.42,10.42,0,0,1,4.61-1q5.57,0,7.52,3.88a13.71,13.71,0,0,1,1.07,6.08V609.1h-4.46V592.62a9,9,0,0,0-.71-3.86,4.29,4.29,0,0,0-4.25-2.44,8.64,8.64,0,0,0-2.56.32,6.56,6.56,0,0,0-3.18,2.15,6.47,6.47,0,0,0-1.43,2.67,17.94,17.94,0,0,0-.33,3.94v13.7h-4.39Z"/><path class="cls-1" d="M969.34,592.91H981.6v4.52H969.34Z"/><path class="cls-1" d="M485.11,660.9a6.38,6.38,0,0,0,1.1,3.36q1.67,2.13,5.76,2.13a8.59,8.59,0,0,0,4.3-1.06,3.54,3.54,0,0,0,1.86-3.29,2.82,2.82,0,0,0-1.49-2.56,18.15,18.15,0,0,0-3.76-1.25l-3.49-.87a17.21,17.21,0,0,1-4.93-1.86,5.55,5.55,0,0,1-2.84-4.93,7.52,7.52,0,0,1,2.68-6,10.64,10.64,0,0,1,7.19-2.29c3.93,0,6.78,1.15,8.52,3.46a7.5,7.5,0,0,1,1.58,4.74h-4.15a5.09,5.09,0,0,0-1.05-2.71q-1.51-1.72-5.25-1.73a6.24,6.24,0,0,0-3.77,1,3,3,0,0,0-1.28,2.51,3.1,3.1,0,0,0,1.69,2.74,10,10,0,0,0,2.88,1.07l2.9.71a22.91,22.91,0,0,1,6.35,2.22,5.89,5.89,0,0,1,2.56,5.3,8.05,8.05,0,0,1-2.65,6q-2.64,2.54-8.07,2.54c-3.88,0-6.64-.88-8.26-2.65a10,10,0,0,1-2.6-6.55Z"/><path class="cls-1" d="M526.14,643.67a10,10,0,0,1,4,3.38,11.77,11.77,0,0,1,1.75,4.62,30.16,30.16,0,0,1,.39,5.76H513.1a11.17,11.17,0,0,0,1.88,6.38,6.27,6.27,0,0,0,5.44,2.41,7.06,7.06,0,0,0,5.5-2.27,7.76,7.76,0,0,0,1.66-3.05h4.32a9.1,9.1,0,0,1-1.14,3.21A11.3,11.3,0,0,1,528.6,667a10.25,10.25,0,0,1-5,2.64,15.13,15.13,0,0,1-3.59.39,11,11,0,0,1-8.28-3.56q-3.39-3.54-3.39-9.94a15.07,15.07,0,0,1,3.41-10.23,11.29,11.29,0,0,1,8.94-3.93A12,12,0,0,1,526.14,643.67Zm1.61,10.27a11.41,11.41,0,0,0-1.25-4.57q-1.8-3.17-6-3.17a6.71,6.71,0,0,0-5.08,2.18,8.29,8.29,0,0,0-2.17,5.56Z"/><path class="cls-1" d="M554.8,644a9.7,9.7,0,0,1,2.35,2.59V643h4.17v36.57H556.9V666.1a7.86,7.86,0,0,1-3,2.79,10.24,10.24,0,0,1-4.85,1,10.35,10.35,0,0,1-7.47-3.27q-3.3-3.27-3.3-10a16.46,16.46,0,0,1,3.09-10.31,9.63,9.63,0,0,1,8-4A9,9,0,0,1,554.8,644Zm-11,18.07a6.05,6.05,0,0,0,6,4.07,6.32,6.32,0,0,0,6.33-4.29,16.53,16.53,0,0,0,1-6.06,13.46,13.46,0,0,0-1.05-5.66,6.34,6.34,0,0,0-6.27-3.88,6.13,6.13,0,0,0-4.9,2.48q-2,2.47-2,7.65A15,15,0,0,0,543.79,662.07Z"/><path class="cls-1" d="M574.56,643v17.36a7.21,7.21,0,0,0,.64,3.27c.78,1.56,2.23,2.34,4.37,2.34a6.17,6.17,0,0,0,6.25-4.1,16.29,16.29,0,0,0,.9-6V643h4.39V669.1H587l0-3.86a9.12,9.12,0,0,1-2.12,2.52,9.39,9.39,0,0,1-6.1,2q-5.6,0-7.62-3.74a11.13,11.13,0,0,1-1.1-5.35V643Z"/><path class="cls-1" d="M614.34,653.25a2.4,2.4,0,0,0,2-1.27,3.93,3.93,0,0,0,.29-1.68,3.59,3.59,0,0,0-1.6-3.26,8.64,8.64,0,0,0-4.58-1q-3.43,0-4.88,1.85a6.07,6.07,0,0,0-1.05,3h-4.1q.12-4.83,3.13-6.72a12.92,12.92,0,0,1,7-1.89,14.25,14.25,0,0,1,7.49,1.75,6,6,0,0,1,2.86,5.47v15.07a1.93,1.93,0,0,0,.28,1.1,1.37,1.37,0,0,0,1.18.41,5.29,5.29,0,0,0,.66,0c.25,0,.51-.06.79-.11v3.25a12,12,0,0,1-1.57.37,11.23,11.23,0,0,1-1.46.07,3.63,3.63,0,0,1-3.3-1.61,6.11,6.11,0,0,1-.75-2.42,11.29,11.29,0,0,1-3.86,3,11.87,11.87,0,0,1-5.54,1.3,8.26,8.26,0,0,1-6-2.21,7.35,7.35,0,0,1-2.31-5.53,7.1,7.1,0,0,1,2.28-5.64,10.73,10.73,0,0,1,6-2.47Zm-9.25,11.89a5.09,5.09,0,0,0,3.29,1.1,10.08,10.08,0,0,0,4.49-1.07,6.06,6.06,0,0,0,3.67-5.84v-3.54a7.66,7.66,0,0,1-2.08.86,17.93,17.93,0,0,1-2.49.49l-2.66.34a10,10,0,0,0-3.59,1,3.89,3.89,0,0,0-2,3.66A3.61,3.61,0,0,0,605.09,665.14Z"/><path class="cls-1" d="M631.36,635.65h4.44V643H640v3.59H635.8v17.07a1.85,1.85,0,0,0,.93,1.83,3.92,3.92,0,0,0,1.71.27l.68,0c.25,0,.53,0,.86-.06v3.47a10,10,0,0,1-1.58.32,16.09,16.09,0,0,1-1.77.09c-2,0-3.44-.52-4.17-1.57a7,7,0,0,1-1.1-4.09V646.54h-3.54V643h3.54Z"/></g></svg>