<svg xmlns="http://www.w3.org/2000/svg" viewBox="0 0 1080 1920"><defs><style>.cls-1{fill:#e6d4ca;}.cls-2{font-size:48px;fill:#7f6e66;font-family:Roboto-Medium, Roboto;font-weight:500;}.cls-3{fill:#689997;}.cls-4{fill:#fdfdfd;}.cls-5{fill:#025959;stroke:#7f6e66;}.cls-5,.cls-6{stroke-miterlimit:10;}.cls-6{fill:#f7931e;stroke:#f7931e;stroke-width:2px;}.cls-7{fill:#83f2b5;}.cls-8{fill:#f28e07;}</style></defs><g id="BASE"><rect class="cls-1" x="-10" y="-11" width="1094" height="1931"/><text class="cls-2" transform="translate(450.7 1577.45)">loading</text><rect class="cls-3" x="224" y="1625" width="625" height="55"/><rect class="cls-4" x="236" y="1638" width="190" height="29"/></g><g id="FONDOS"><rect class="cls-5" x="-5" y="7" width="1094" height="1931"/></g><g id="PUDU_1"><path class="cls-6" d="M281.27,552.69c17-62,11.34-61.62,21.92-62.75,50.66-3.78,109.62,3,109.25,63.5,0,43.1-59,79.76-102.82,83.92a105.73,105.73,0,0,1-11,.38c-23.82,96.39-20.42,92.23-25.33,92.61-9.45.76-30.24-9.07-30.62-20C242.71,707.29,270.31,592.76,281.27,552.69Zm108.86-13.23c-6.42-8.7-50.27-12.48-67.66-11-5.67,22.68-11,45.74-15.12,69.56C338,595.4,385.22,562.14,390.13,539.46Z"/><path class="cls-6" d="M410.16,699.35c16.64,3.41,97.53,3,99.42,3,7.18,0,15.5,14,12.47,25-8.69-.76-45.73,3.4-74.46,3.4-12.86,0-24.2-.76-30.62-3.4C407.14,723.55,408.27,706.16,410.16,699.35Zm14-63.5c.76-21.93,17-88.08,25.33-124,4.91-21.54,3-23.43,9.07-23.43,11,0,24.95,8.69,24.57,18.9C482,538.7,464.22,586,461.2,630.56c-.76,11,1.13,17,9.45,17,16.25,0,33.26-83.92,49.14-140.62,3.4-12.1,3.78-20.41,9.45-20.41,7.56,0,24.19,12.09,23.43,20.41-7.94,34-28.35,176.9-82,178.42C445.32,686.12,423,666.84,424.15,635.85Z"/><path class="cls-6" d="M597.65,500.14c-.38-8.31,1.51-13.23,9.07-13.23,45,0,97.53,17,100.55,71.45,5.67,100.92-91.1,175.39-126.63,175.39-8.7,0-19-5.5-22-13.41-1.63-4.34-3.63-8.34-2.94-24C557,666.83,598.78,522.82,597.65,500.14Zm-6.27,179.09c47.62,4.77,89-67.93,86.74-115.93-1.13-23.44-32.31-37.81-52.34-37.81C625.78,525.49,591.38,678.48,591.38,679.23Z"/><path class="cls-6" d="M717.09,699.35c16.63,3.41,97.52,3,99.41,3,7.19,0,15.5,14,12.48,25-8.69-.76-45.74,3.4-74.47,3.4-12.85,0-24.19-.76-30.62-3.4C714.07,723.55,715.2,706.16,717.09,699.35Zm14-63.5c.75-21.93,17-88.08,25.32-124,4.92-21.54,3-23.43,9.07-23.43,11,0,24.95,8.69,24.57,18.9-1.13,31.37-18.9,78.62-21.92,123.23-.76,11,1.13,17,9.45,17,16.25,0,33.26-83.92,49.14-140.62,3.4-12.1,3.78-20.41,9.45-20.41,7.56,0,24.19,12.09,23.44,20.41-7.94,34-28.35,176.9-82,178.42C752.24,686.12,729.94,666.84,731.08,635.85Z"/></g><g id="PUDU_ICON"><path class="cls-6" d="M659,1377.5c37,0,43-15,43-15s8.5-6.5,5.5-10.5-18-14-21-26-1-19.94-10-29c-4-4,10-11-11-39a37.24,37.24,0,0,0-16,7c-8,6-10,9-10,10s-22,1-22,1c-22-16-42-21-42-21s-13,19-8,31,10,21,16,27-9,24-9,24l8-5s-5.65,41.48-28,43c-14.68,1-33.68,1-33.68,1s-38,1-55.32-4c-38.89-11.23-72.68,24-88.39,44.87-10.13,13.47-2.29,41.13-2.29,41.13l3-8,4,28,4-16s-1.32,9,2.68,21,10,16,10,16c5,9,3,28,3,28,1,21,13,54,13,54a79.67,79.67,0,0,0,15,19h17.68a18.19,18.19,0,0,0-5.68-14c-8-8-7-40-7-40,4-12,33-31,33-31l-4,9c-4,15,27,65,27,65l4,7,15,1c0-6-2-8-2-8-26-43-17-65-17-65,18-6,23-18,23-18l18,4c5,14,8,84,8,84,3,9,12,11,12,11l2-2c5-43,21-89,21-89,13-9,17-3,17-3,9,27,6,33,6,33-8,25-25,34-25,34v7l2,4c3-1,6-5,6-5,25-13,33-26,33-26,16-20,12-58,12-58a31.94,31.94,0,0,0,5-19c11-7,12-16,12-16,17-22,18-45,18-45l3,8-1-37,7,3-5-7,6,1Z"/></g><g id="Capa_22" data-name="Capa 22"><rect class="cls-7" x="97" y="1661" width="895" height="20" rx="10"/></g><g id="Capa_23" data-name="Capa 23"><rect class="cls-8" x="95" y="1661" width="617" height="20" rx="10"/></g></svg>