<svg xmlns="http://www.w3.org/2000/svg" viewBox="0 0 974.04 929.83"><defs><style>.cls-1,.cls-7{fill:#83f2b5;}.cls-2,.cls-4,.cls-5{fill:#025959;}.cls-3,.cls-6{fill:none;}.cls-3,.cls-4,.cls-5,.cls-6{stroke:#83f2b5;}.cls-3,.cls-4,.cls-5,.cls-6,.cls-7{stroke-miterlimit:10;}.cls-3,.cls-5{stroke-width:5px;}.cls-4,.cls-6{stroke-width:8px;}.cls-7{stroke:#025959;stroke-width:6px;}</style></defs><g id="Capa_35" data-name="Capa 35"><rect class="cls-1" x="121.12" y="116.45" width="734" height="734" rx="59.6"/><path class="cls-2" d="M239.87,850H746.8S746.72,568,495,568C238.85,568,239.87,850,239.87,850Z"/><path class="cls-2" d="M684,447.63C655,582.38,543,700.06,496.32,700.06c-63.63,0-161.42-89.83-192.12-206.94-43.77-167,72.49-226.28,192.12-226.28C631.67,266.84,706.31,343.68,684,447.63Z"/><path class="cls-2" d="M298.56,407.59c65.58-20.21,100.55-125.86,100.55-125.86-45.49-36.35-110.47-48.14-143-51.88a18.24,18.24,0,0,0-20.3,18.3C237.32,397.13,298.56,407.59,298.56,407.59Z"/><path class="cls-2" d="M741.64,237.66C679.47,220,590.83,287.14,590.83,287.14c13.68,52.9,56.67,96.08,79.44,115.94,7.63,6.65,20,4.64,26.29-4.26C782.55,277.83,741.64,237.66,741.64,237.66Z"/><path class="cls-3" d="M484,562.81l-13.39-15.24A15.13,15.13,0,0,1,482,522.45h27.23a15.13,15.13,0,0,1,11.2,25.3L506.59,563A15.12,15.12,0,0,1,484,562.81Z"/><rect class="cls-4" x="501.65" y="375.95" width="214" height="171" rx="30.49"/><circle class="cls-1" cx="611.15" cy="463.45" r="45.5"/><path class="cls-5" d="M407.65,848c141.5-211.5,129-314,129-314,1-22.05,10.49-28.7,20.15-29.66a26.21,26.21,0,0,1,26.5,16.22c17.38,41.67,7.85,136.94,7.85,136.94-15,146-39.43,192.19-39.43,192.19"/><path class="cls-6" d="M385,464.94c39.49-20.29,66.77,17,66.77,17"/><path class="cls-5" d="M578.15,848.64l14.84-36a607.35,607.35,0,0,0,46.13-228.47c0-.52,0-1,0-1.58.07-27.93-1.79-42.08,3.16-58.11,5.86-19,24.55-20.29,24.55-20.29,31.31-2.74,34.81,70.76,34.81,70.76l23,273"/><path class="cls-5" d="M545.64,509c11.51,19.5,10.51,30.5,10.51,30.5"/><path class="cls-5" d="M557.69,504.12c12.46,4.33,12.46,31.33,12.46,31.33"/><path class="cls-5" d="M652.26,510.46C663.78,530,662.78,541,662.78,541"/><path class="cls-5" d="M664.32,505.62C676.78,510,676.78,537,676.78,537"/><ellipse class="cls-4" cx="674.65" cy="398.95" rx="12" ry="3"/><path class="cls-4" d="M576.65,373l7.18-16.51a10.79,10.79,0,0,1,9.9-6.49h37.06a10.8,10.8,0,0,1,10.22,7.3L646.4,373"/><circle class="cls-7" cx="611.15" cy="463.45" r="34.5"/><polyline class="cls-3" points="386.33 306.32 341.03 295.33 370.79 315.8 327.98 331.2 357.16 329 327.98 351.93 299.79 359.8 316.79 368.8"/><polyline class="cls-3" points="593.45 306.77 638.91 295.77 609.04 316.24 652.01 331.65 622.73 329.45 652.01 352.38 680.29 360.24 663.23 369.24"/><path class="cls-5" d="M410.29,295.33,421,235c4.77-29.24,22.77-30.57,22.77-30.57l10.61,11v51.74l15.08,28.58-15.08,15.7C428.79,332.8,410.29,295.33,410.29,295.33Z"/><path class="cls-5" d="M578.28,295.72l-11.23-60.29c-5-29.24-23.85-30.57-23.85-30.57l-11.11,11v51.74l-15.8,28.59,15.8,15.69C558.91,333.19,578.28,295.72,578.28,295.72Z"/><path class="cls-3" d="M495.4,568c-26.87,37.5-53.87,6.5-53.87,6.5"/><path class="cls-3" d="M534.68,575.1c-22.15,29.38-40.87-.5-40.87-.5"/></g></svg>